<?xml version="1.0" encoding="UTF-8"?>
<!DOCTYPE svg PUBLIC "-//W3C//DTD SVG 1.1//EN" "http://www.w3.org/Graphics/SVG/1.1/DTD/svg11.dtd">
<!-- Creator: CorelDRAW -->
<svg xmlns="http://www.w3.org/2000/svg" xml:space="preserve" width="423.333mm" height="79.6161mm" version="1.1" style="shape-rendering:geometricPrecision; text-rendering:geometricPrecision; image-rendering:optimizeQuality; fill-rule:evenodd; clip-rule:evenodd"
viewBox="0 0 42333.28 7961.61"
 xmlns:xlink="http://www.w3.org/1999/xlink"
 xmlns:xodm="http://www.corel.com/coreldraw/odm/2003">
 <defs>
  <style type="text/css">
   <![CDATA[
    .fil2 {fill:black}
    .fil1 {fill:black;fill-rule:nonzero}
    .fil0 {fill:#CC9933;fill-rule:nonzero}
   ]]>
  </style>
 </defs>
 <g id="Layer_x0020_1">
  <metadata id="CorelCorpID_0Corel-Layer"/>
  <g id="_2099129726208">
   <path class="fil0" d="M7951.61 3980.8c0,713.48 -176.71,1376.95 -530.11,1990.41 -353.41,613.45 -835.17,1096.88 -1445.29,1450.29 -610.13,353.4 -1271.93,530.11 -1985.4,530.11 -720.15,0 -1386.95,-176.71 -2000.41,-530.11 -613.46,-353.41 -1098.55,-836.84 -1455.29,-1450.29 -356.74,-613.46 -535.11,-1276.93 -535.11,-1990.41l0 -3980.8 1980.4 0 0 3980.8c0,546.78 195.04,1013.54 585.12,1400.29 390.08,386.74 861.84,580.11 1415.28,580.11 553.45,0 1025.21,-193.37 1415.29,-580.11 390.08,-386.75 585.12,-853.51 585.12,-1400.29l0 -3980.8 1970.4 0 0 3980.8z"/>
   <path id="_1" class="fil1" d="M12601.23 7951.61c-720.15,0 -1385.28,-176.71 -1995.4,-530.11 -610.13,-353.41 -1093.56,-836.84 -1450.3,-1450.29 -356.73,-613.46 -535.1,-1278.6 -535.1,-1995.41 0,-716.81 178.37,-1381.94 535.1,-1995.4 356.74,-613.46 840.17,-1096.89 1450.3,-1450.29 610.12,-353.41 1275.25,-530.11 1995.4,-530.11l3970.8 0 0 1980.4 -3970.8 0c-553.45,0 -1023.54,195.04 -1410.28,585.12 -386.75,390.08 -580.12,861.84 -580.12,1415.28 0,546.78 193.37,1015.21 580.12,1405.29 386.74,390.08 856.83,585.12 1410.28,585.12l3970.8 0 0 1980.4 -3970.8 0z"/>
   <path id="_2" class="fil1" d="M17210.85 3980.8c0,-720.14 178.37,-1385.28 535.1,-1995.4 356.74,-610.12 840.17,-1093.55 1450.3,-1450.29 610.12,-356.74 1275.25,-535.11 1995.4,-535.11 713.48,0 1376.94,178.37 1990.4,535.11 613.46,356.74 1096.89,840.17 1450.29,1450.29 353.41,610.12 530.11,1275.26 530.11,1995.4l0 3980.81 -1970.4 0 0 -2990.61 -4000.8 0 0 2990.61 -1980.4 0 0 -3980.81zm5711.15 -1000.2c-173.37,-300.06 -413.42,-538.44 -720.15,-715.14 -306.72,-176.7 -643.46,-265.06 -1010.2,-265.06 -366.74,0 -703.48,88.36 -1010.2,265.06 -306.73,176.7 -546.78,415.08 -720.15,715.14l3460.7 0z"/>
   <path id="_3" class="fil1" d="M30722.25 2980.6l550.11 0c686.81,0 1271.92,243.38 1755.36,730.15 483.43,486.76 725.14,1073.55 725.14,1760.36 0,686.8 -241.71,1271.92 -725.14,1755.35 -483.44,483.43 -1068.55,725.15 -1755.36,725.15l-5471.1 0 0 -1990.41 3040.61 0 2430.49 0c140.03,0 256.72,-46.67 350.07,-140.02 93.35,-93.36 140.03,-210.05 140.03,-350.07 0,-140.03 -46.68,-256.72 -140.03,-350.08 -93.35,-93.35 -210.04,-140.02 -350.07,-140.02l0 -10.01 -2430.49 0 -560.11 0c-686.81,0 -1271.93,-241.71 -1755.36,-725.14 -483.43,-483.43 -725.14,-1068.55 -725.14,-1755.36 0,-686.8 241.71,-1271.92 725.14,-1755.35 483.43,-483.43 1068.55,-728.48 1755.36,-735.15l10 0 5461.1 0 0 1990.4 -3030.61 0 -2430.49 0 0 10c-140.03,0 -256.72,46.68 -350.07,140.03 -93.35,93.35 -140.03,210.04 -140.03,350.07 0,140.03 46.68,256.72 140.03,350.07 93.35,93.36 210.04,140.03 350.07,140.03l2430.49 0z"/>
   <polygon id="_4" class="fil1" points="40342.88,4971 36372.08,4971 36372.08,7951.61 34381.67,7951.61 34381.67,4971 34381.67,2980.6 34381.67,0 36372.08,0 36372.08,2980.6 40342.88,2980.6 40342.88,0 42333.28,0 42333.28,7951.61 40342.88,7951.61 "/>
   <path class="fil2" d="M6962.26 7961.61l2669.31 0c-527.47,-394.66 -960.24,-885.28 -1298.19,-1471.89 -12.34,-21.42 -24.46,-42.86 -36.44,-64.36 -11.98,21.5 -24.15,42.94 -36.49,64.36 -337.95,586.61 -770.72,1077.23 -1298.19,1471.89z"/>
  </g>
 </g>
</svg>
