<?xml version="1.0" encoding="UTF-8"?>
<!DOCTYPE svg PUBLIC "-//W3C//DTD SVG 1.1//EN" "http://www.w3.org/Graphics/SVG/1.1/DTD/svg11.dtd">
<!-- Creator: CorelDRAW -->
<svg xmlns="http://www.w3.org/2000/svg" xml:space="preserve" width="155.253mm" height="105.562mm" version="1.1" style="shape-rendering:geometricPrecision; text-rendering:geometricPrecision; image-rendering:optimizeQuality; fill-rule:evenodd; clip-rule:evenodd"
viewBox="0 0 15525.58 10556.46"
 xmlns:xlink="http://www.w3.org/1999/xlink"
 xmlns:xodm="http://www.corel.com/coreldraw/odm/2003">
 <defs>
  <style type="text/css">
   <![CDATA[
    .fil3 {fill:#CC9933}
    .fil2 {fill:white}
    .fil0 {fill:#CC9933;fill-rule:nonzero}
    .fil1 {fill:white;fill-rule:nonzero}
   ]]>
  </style>
 </defs>
 <g id="Layer_x0020_1">
  <metadata id="CorelCorpID_0Corel-Layer"/>
  <path class="fil0" d="M2916.23 9096.4c0,261.69 -64.81,505.02 -194.41,730.02 -129.62,224.99 -306.31,402.3 -530.07,531.92 -223.74,129.61 -466.46,194.42 -728.14,194.42 -264.11,0 -508.65,-64.81 -733.64,-194.42 -224.97,-129.62 -402.89,-306.93 -533.72,-531.92 -130.83,-224.99 -196.25,-468.33 -196.25,-730.02l0 -1460.02 726.3 0 0 1460.02c0,200.54 71.53,371.74 214.59,513.58 143.05,141.84 316.07,212.76 519.05,212.76 202.97,0 375.99,-70.92 519.05,-212.76 143.06,-141.84 214.58,-313.04 214.58,-513.58l0 -1460.02 722.64 0 0 1460.02z"/>
  <path id="_1" class="fil1" d="M4621.47 10552.76c-264.12,0 -508.05,-64.81 -731.82,-194.42 -223.75,-129.62 -401.05,-306.93 -531.89,-531.92 -130.82,-224.99 -196.24,-468.94 -196.24,-731.85 0,-262.91 65.42,-506.85 196.24,-731.85 130.84,-224.99 308.14,-402.3 531.89,-531.92 223.76,-129.61 467.7,-194.42 731.82,-194.42l1456.27 0 0 726.34 -1456.27 0c-202.97,0 -375.38,71.53 -517.22,214.6 -141.83,143.06 -212.76,316.09 -212.76,519.07 0,200.54 70.93,372.35 212.76,515.41 141.84,143.07 314.25,214.6 517.22,214.6l1456.27 0 0 726.34 -1456.27 0z"/>
  <path id="_2" class="fil1" d="M6312.02 9096.4c0,-264.13 65.42,-508.07 196.24,-731.85 130.84,-223.76 308.14,-401.08 531.9,-531.91 223.75,-130.84 467.69,-196.26 731.81,-196.26 261.66,0 504.99,65.42 729.98,196.26 224.98,130.83 402.28,308.15 531.88,531.91 129.61,223.77 194.41,467.72 194.41,731.85l0 1460.03 -722.63 0 0 -1096.85 -1467.27 0 0 1096.85 -726.31 0 0 -1460.03zm2094.54 -366.84c-63.57,-110.05 -151.61,-197.48 -264.11,-262.29 -112.49,-64.81 -235.98,-97.21 -370.49,-97.21 -134.51,0 -258.01,32.4 -370.49,97.21 -112.5,64.8 -200.53,152.23 -264.12,262.29l1269.2 0z"/>
  <path id="_3" class="fil1" d="M11267.28 8729.56l201.75 0c251.89,0 466.47,89.26 643.77,267.8 177.29,178.52 265.94,393.74 265.94,645.63 0,251.9 -88.64,466.5 -265.94,643.8 -177.3,177.31 -391.89,265.97 -643.77,265.97l-2006.5 0 0 -730.02 1115.13 0 891.37 0c51.36,0 94.14,-17.12 128.38,-51.36 34.24,-34.23 51.36,-77.03 51.36,-128.39 0,-51.35 -17.12,-94.15 -51.36,-128.39 -34.24,-34.24 -77.02,-51.35 -128.38,-51.35l0 -3.67 -891.37 0 -205.42 0c-251.89,0 -466.48,-88.65 -643.77,-265.97 -177.29,-177.3 -265.94,-391.9 -265.94,-643.8 0,-251.9 88.64,-466.49 265.94,-643.8 177.29,-177.3 391.89,-267.18 643.77,-269.63l3.67 0 2002.83 0 0 730.02 -1111.46 0 -891.37 0 0 3.67c-51.36,0 -94.15,17.12 -128.39,51.35 -34.23,34.24 -51.35,77.04 -51.35,128.39 0,51.36 17.12,94.16 51.35,128.4 34.24,34.23 77.03,51.35 128.39,51.35l891.37 0z"/>
  <polygon id="_4" class="fil1" points="14795.61,9459.57 13339.34,9459.57 13339.34,10552.76 12609.37,10552.76 12609.37,9459.57 12609.37,8729.56 12609.37,7636.38 13339.34,7636.38 13339.34,8729.56 14795.61,8729.56 14795.61,7636.38 15525.58,7636.38 15525.58,10552.76 14795.61,10552.76 "/>
  <path class="fil2" d="M2552.84 10556.46l979.06 0c-193.47,-144.76 -352.21,-324.73 -476.16,-539.89 -4.52,-7.86 -8.97,-15.73 -13.36,-23.61 -4.4,7.88 -8.86,15.75 -13.39,23.61 -123.95,215.16 -282.69,395.13 -476.15,539.89z"/>
  <path class="fil2" d="M7762.73 0c217.21,0 429.79,19.63 636.08,57.18l-1272.17 0c206.29,-37.55 418.87,-57.18 636.08,-57.18zm905.29 117.21c67.03,17.74 133.28,37.4 198.68,58.93l-2207.95 0c65.4,-21.53 131.65,-41.19 198.68,-58.93l1810.58 0zm366.56 118.95c48.19,18.63 95.87,38.28 143.01,58.93l-2829.72 0c47.14,-20.65 94.82,-40.3 143,-58.93l2543.7 0zm272.81 118.96c38.89,18.95 77.37,38.6 115.44,58.93l-3320.19 0c38.07,-20.33 76.55,-39.98 115.44,-58.93l3089.3 0zm223.24 118.95c33,19.13 65.67,38.77 97.98,58.93l-3731.76 0c32.31,-20.16 64.98,-39.8 97.98,-58.93l3535.79 0zm190.96 118.96c28.8,19.23 57.29,38.87 85.48,58.93l-4088.68 0c28.19,-20.06 56.68,-39.7 85.48,-58.93l3917.72 0zm167.34 118.95c25.58,19.31 50.9,38.94 75.92,58.93l-4404.25 0c25.02,-19.99 50.33,-39.62 75.91,-58.93l4252.42 0zm149.03 118.96c22.97,19.36 45.7,38.99 68.16,58.92l-1520.88 0 -32.47 -32.46 -32.47 32.46 -1516.78 0 -30.79 -30.79 -30.79 30.79 -1522.61 0c22.45,-19.93 45.19,-39.56 68.16,-58.92l4550.47 0zm134.13 118.95c20.79,19.39 41.33,39.04 61.63,58.93l-1529.53 0 -58.92 -58.93 1526.82 0zm-1770.77 58.93l-1278.86 0 -58.93 -58.93 1396.73 0 -58.94 58.93zm-1578.35 0l-1531.26 0c20.31,-19.89 40.85,-39.54 61.64,-58.93l1528.55 0 -58.93 58.93zm3470.61 60.03c18.94,19.42 37.65,39.06 56.13,58.93l-1526.56 0 -58.93 -58.93 1529.36 0zm-2011.24 58.93l-1040.91 0 -58.93 -58.93 1158.78 0 -58.94 58.93zm-1578.32 0l-1528.29 0c18.47,-19.87 37.19,-39.51 56.12,-58.93l1531.1 0 -58.93 58.93zm3700.25 60.02c17.31,19.46 34.43,39.08 51.3,58.93l-1513.46 0 -58.93 -58.93 1521.09 0zm-2240.91 58.93l-802.97 0 -58.94 -58.93 920.86 0 -58.95 58.93zm-1578.3 0l-1515.18 0c16.87,-19.85 33.99,-39.47 51.29,-58.93l1522.83 0 -58.94 58.93zm3920.33 60.03c15.84,19.48 31.54,39.1 46.97,58.93l-1491.29 0 -58.93 -58.93 1503.25 0zm-2461 58.93l-565.04 0 -58.93 -58.93 682.91 0 -58.94 58.93zm-1578.28 0l-1493.02 0c15.43,-19.83 31.12,-39.45 46.97,-58.93l1504.98 0 -58.93 58.93zm4131.88 60.02c14.53,19.51 28.93,39.12 43.06,58.93l-1461.02 0 -58.93 -58.93 1476.89 0zm-2672.58 58.93l-327.11 0 -58.93 -58.93 444.98 0 -58.94 58.93zm-1578.25 0l-1462.75 0c14.13,-19.81 28.53,-39.42 43.06,-58.93l1478.61 0 -58.92 58.93zm4335.77 60.03c13.34,19.51 26.53,39.13 39.46,58.93l-1423.41 0 -58.92 -58.93 1442.87 0zm-2876.49 58.93l-89.18 0 -58.93 -58.93 207.05 0 -58.94 58.93zm-1578.24 0l-1425.14 0c12.94,-19.8 26.13,-39.42 39.47,-58.93l1444.6 0 -58.93 58.93zm4532.61 60.02c12.23,19.52 24.3,39.15 36.14,58.93l-1379.01 0 -58.93 -58.93 1401.8 0zm-4651.57 58.93l-1380.74 0c11.84,-19.78 23.91,-39.41 36.14,-58.93l1403.52 0 -58.92 58.93zm4722.88 60.03c11.2,19.52 22.22,39.16 33.03,58.93l-1328.26 0 -58.93 -58.93 1354.16 0zm-4841.84 58.93l-1329.99 0c10.82,-19.77 21.84,-39.41 33.04,-58.93l1355.88 0 -58.93 58.93zm4907 60.02c10.22,19.53 20.27,39.17 30.11,58.93l-1444.97 0 58.93 -58.93 1355.93 0zm-4848.89 58.93l-1450.34 0c9.85,-19.76 19.9,-39.4 30.12,-58.93l1361.29 0 58.93 58.93zm4908.25 60.03c9.3,19.54 18.41,39.18 27.35,58.93l-1620.52 0 58.93 -58.93 1534.24 0zm-4789.29 58.93l-1625.89 0c8.94,-19.75 18.05,-39.39 27.35,-58.93l1539.61 0 58.93 58.93zm4843.13 60.02c8.42,19.56 16.67,39.2 24.74,58.93l-1790.71 0 58.93 -58.93 1707.04 0zm-4724.18 58.93l-1796.08 0c8.07,-19.73 16.32,-39.37 24.74,-58.93l1712.42 0 58.92 58.93zm4772.85 60.03c7.61,19.55 15.04,39.19 22.29,58.92l-1955.89 0 58.93 -58.92 1874.67 0zm-4653.89 58.92l-1961.26 0c7.24,-19.73 14.68,-39.37 22.28,-58.92l1880.05 0 58.93 58.92zm4697.65 60.03c6.82,19.57 13.47,39.2 19.92,58.93l-2116.23 0 58.92 -58.93 2037.39 0zm-4578.69 58.93l-2121.61 0c6.46,-19.73 13.11,-39.36 19.93,-58.93l2042.75 0 58.93 58.93zm4617.72 60.03c6.05,19.57 11.95,39.2 17.64,58.92l-2271.94 0 58.93 -58.92 2195.37 0zm-4498.75 58.92l-2277.31 0c5.68,-19.72 11.59,-39.35 17.64,-58.92l2200.74 0 58.93 58.92zm4533.18 60.03c5.31,19.57 10.49,39.21 15.43,58.93l-2423.12 0 58.94 -58.93 2348.75 0zm-4414.22 58.93l-2428.5 0c4.95,-19.72 10.12,-39.36 15.44,-58.93l2354.12 0 58.94 58.93zm4444.2 60.02c4.6,19.58 9.07,39.21 13.29,58.94l-2392.92 0c-12.36,-19.85 -25.04,-39.5 -38.03,-58.94l2417.66 0zm-4507.97 58.94l-2392.56 0c4.22,-19.73 8.69,-39.36 13.28,-58.94l2417.21 0c-12.99,19.47 -25.63,39.12 -37.93,58.94zm4533.62 60.02c3.89,19.58 7.67,39.21 11.18,58.93l-2347.59 0c-10.63,-19.8 -21.58,-39.45 -32.85,-58.93l2369.26 0zm-4602.18 58.93l-2347.55 0c3.52,-19.72 7.3,-39.35 11.19,-58.93l2369.04 0c-11.22,19.48 -22.11,39.12 -32.68,58.93zm4623.59 60.03c3.2,19.59 6.31,39.21 9.13,58.93l-536.06 0 -58.93 -58.93 585.86 0zm-741.68 58.93l-1556.97 0c-9.08,-19.8 -18.47,-39.44 -28.15,-58.93l1644.05 0 -58.93 58.93zm-3940.63 0l-1552 0 -58.93 -58.93 1638.85 0c-6.98,14.17 -13.81,28.42 -20.48,42.75 -2.5,5.38 -4.98,10.77 -7.44,16.18zm-1770.39 0l-537.79 0c2.83,-19.72 5.93,-39.34 9.14,-58.93l587.58 0 -58.93 58.93zm6469.93 60.02c2.53,19.6 4.97,39.22 7.12,58.93l-432.34 0 -58.93 -58.93 484.15 0zm-877.87 58.93l-1387.69 0c-7.68,-19.78 -15.64,-39.43 -23.87,-58.93l1470.49 0 -58.93 58.93zm-3871.45 0l-1383.28 0 -58.92 -58.93 1465.79 0c-8.14,19.48 -16,39.12 -23.59,58.93zm-1839.57 0l-434.06 0c2.14,-19.71 4.59,-39.33 7.11,-58.93l485.88 0 -58.93 58.93zm6602.05 60.03c1.86,19.6 3.65,39.22 5.13,58.93l-324.55 0 -58.93 -58.93 378.35 0zm-1009.98 58.93l-1226.49 0c-6.39,-19.78 -13.05,-39.43 -19.96,-58.93l1305.38 0 -58.93 58.93zm-3794.17 0l-1222.65 0 -58.93 -58.93 1301.26 0c-6.82,19.48 -13.38,39.13 -19.68,58.93zm-1916.86 0l-326.27 0c1.47,-19.71 3.27,-39.33 5.13,-58.93l380.07 0 -58.93 58.93zm6730.13 60.02c1.2,19.6 2.36,39.22 3.18,58.93l-212.76 0 -58.93 -58.93 268.52 0zm-1138.05 58.93l-1072.69 0c-0.99,-3.75 -1.98,-7.51 -2.99,-11.27 -4.3,-15.97 -8.76,-31.86 -13.38,-47.66l1147.98 0 -58.92 58.93zm-3710.1 0l-1068.81 0 -58.92 -58.93 1144.41 0c-4.49,15.58 -8.82,31.24 -12.99,47l-0.46 -0.12c-1.09,4.01 -2.16,8.03 -3.23,12.05zm-2000.93 0l-214.48 0c0.82,-19.71 1.97,-39.33 3.17,-58.93l270.25 0 -58.93 58.93zm6854.23 60.03c0.54,19.61 1.07,39.22 1.23,58.93l-97 0 -58.93 -58.93 154.7 0zm-1262.17 58.93l-925.86 0c-4.04,-19.67 -8.35,-39.31 -12.95,-58.93l997.74 0 -58.93 58.93zm-3619.17 0l-921.81 0 -58.93 -58.93 993.75 0c-4.63,19.62 -8.97,39.27 -13.01,58.93zm-2091.85 0l-98.72 0c0.16,-19.71 0.69,-39.32 1.23,-58.93l156.42 0 -58.93 58.93zm6974.67 60.02c-0.1,12.26 -0.26,24.51 -0.49,36.74l-36.73 -36.74 37.22 0zm-1382.61 58.93l-785.89 0c-2.91,-19.66 -6.1,-39.31 -9.56,-58.93l854.38 0 -58.93 58.93zm-3521.21 0l-781.86 0 -58.93 -58.93 850.32 0c-3.46,19.62 -6.63,39.27 -9.53,58.93zm-2169.3 -20.5c-0.24,-12.79 -0.42,-25.6 -0.53,-38.43l38.96 0 -38.43 38.43zm5571.56 139.46l-652.66 0c-1.8,-19.67 -3.88,-39.31 -6.23,-58.93l717.82 0 -58.93 58.93zm-3416.35 0l-648.8 0 -58.93 -58.93 713.85 0c-2.31,19.61 -4.35,39.26 -6.12,58.93zm3297.4 118.95l-526.11 0c-0.71,-19.66 -1.68,-39.31 -2.93,-58.93l587.97 0 -58.93 58.93zm-3304.71 0l-522.54 0 -58.93 -58.93 584.26 0c-1.2,19.61 -2.13,39.26 -2.79,58.93zm3185.75 118.95l-406.13 0c0.29,-14.94 0.42,-29.9 0.39,-44.86 -0.01,-4.69 -0.04,-9.38 -0.08,-14.06l464.75 0 -58.93 58.92zm-3186.29 0l-403.05 0 -58.93 -58.92 461.39 0c-0.08,19.64 0.11,39.28 0.59,58.92zm3067.33 118.96l-292.8 0c1.48,-19.63 2.69,-39.27 3.62,-58.93l348.11 0 -58.93 58.93zm-3060.98 0l-290.44 0 -58.93 -58.93 345.37 0c1.05,19.64 2.39,39.28 4,58.93zm2942.02 118.96l-186.15 0c2.59,-19.63 4.91,-39.28 6.95,-58.94l238.13 0 -58.93 58.94zm-2928.88 0l-184.61 0 -58.93 -58.94 236.19 0c2.17,19.64 4.62,39.28 7.35,58.94zm2809.93 118.95l-86.32 0c3.72,-19.63 7.16,-39.27 10.32,-58.93l134.93 0 -58.93 58.93zm-2791.32 0l-84.27 0 -58.93 -58.93 133.77 0c2.93,17.51 6.07,35.04 9.43,52.58l0 6.35zm4781.64 60.02c-4.94,19.72 -10.05,39.36 -15.33,58.94l-68.22 0 58.93 -58.94 24.62 0zm-6779.71 58.94l-66.56 0c-5.28,-19.58 -10.39,-39.22 -15.34,-58.94l22.97 0 58.93 58.94zm1973.82 -58.94l36.71 0 4.98 19.93 0 7.71 6.27 20.32 -47.96 -47.96zm2717.01 0l38.54 0 -50.09 50.09c4.06,-16.68 7.9,-33.38 11.55,-50.09zm2056.8 118.96c-5.68,19.72 -11.54,39.36 -17.57,58.93l-152.86 0 58.93 -58.93 111.5 0zm-6628.67 58.93l-151.21 0c-6.02,-19.57 -11.88,-39.21 -17.56,-58.93l109.84 0 58.93 58.93zm6592.03 60.03c-6.46,19.72 -13.08,39.36 -19.88,58.93l-232.86 0 58.93 -58.93 193.81 0zm-6473.07 58.93l-231.21 0c-6.79,-19.57 -13.41,-39.21 -19.87,-58.93l192.15 0 58.93 58.93zm6431.74 60.02c-7.25,19.72 -14.67,39.37 -22.27,58.93l-308.1 0 58.93 -58.93 271.44 0zm-6312.79 58.93l-306.45 0c-7.59,-19.56 -15.01,-39.21 -22.26,-58.93l269.78 0 58.93 58.93zm6266.58 60.03c-8.08,19.73 -16.34,39.38 -24.77,58.93l-378.34 0 58.92 -58.93 344.19 0zm-6147.62 58.93l-376.7 0c-8.43,-19.55 -16.68,-39.2 -24.76,-58.93l342.53 0 58.93 58.93zm6096.32 60.02c-8.95,19.74 -18.06,39.39 -27.36,58.93l-443.41 0 58.93 -58.93 411.84 0zm-5977.36 58.93l-441.75 0c-9.3,-19.54 -18.42,-39.19 -27.36,-58.93l410.18 0 58.93 58.93zm5920.73 60.03c-9.86,19.74 -19.88,39.39 -30.09,58.93l-503 0 58.93 -58.93 474.16 0zm-5801.78 58.93l-501.34 0c-10.21,-19.54 -20.23,-39.19 -30.09,-58.93l472.5 0 58.93 58.93zm5739.54 60.02c-10.81,19.75 -21.8,39.41 -32.98,58.93l-556.83 0 58.93 -58.93 530.88 0zm-5620.58 58.93l-555.17 0c-11.19,-19.52 -22.17,-39.18 -32.99,-58.93l529.23 0 58.93 58.93zm5552.42 60.03c-11.84,19.77 -23.86,39.41 -36.08,58.92l-604.53 0 58.93 -58.92 581.68 0zm-5433.47 58.92l-602.88 0c-12.21,-19.51 -24.23,-39.15 -36.07,-58.92l580.02 0 58.93 58.92zm5358.97 60.03c-12.94,19.78 -26.06,39.43 -39.4,58.93l-647.34 0c17.86,-16.74 35.5,-33.82 52.91,-51.24l7.7 -7.69 626.13 0zm-5238.41 58.93l-645.62 0c-13.33,-19.5 -26.45,-39.15 -39.39,-58.93l624.47 0 9.39 9.38c16.82,16.83 33.87,33.34 51.15,49.55zm5157.09 60.02c-14.13,19.8 -28.46,39.45 -43,58.93l-700.19 0c24.06,-19.1 47.76,-38.74 71.11,-58.93l672.08 0zm-5019.18 58.93l-698.6 0c-14.53,-19.48 -28.86,-39.13 -42.99,-58.93l670.37 0c23.36,20.18 47.09,39.82 71.22,58.93zm4930.42 60.03c-15.43,19.81 -31.08,39.46 -46.93,58.93l-772.68 0c29.1,-18.94 57.74,-38.59 85.92,-58.93l733.69 0zm-4764.76 58.93l-771.58 0c-15.85,-19.47 -31.49,-39.12 -46.93,-58.93l732.32 0c28.24,20.32 56.97,39.97 86.19,58.93zm4667.86 60.02c-16.88,19.84 -33.97,39.48 -51.28,58.94l-878.47 0c36.96,-18.58 73.37,-38.22 109.23,-58.94l820.52 0zm-4460.18 58.94l-877.99 0c-17.31,-19.46 -34.4,-39.1 -51.29,-58.94l819.73 0c35.98,20.74 72.5,40.38 109.55,58.94zm4354.26 60.02c-18.49,19.86 -37.21,39.51 -56.15,58.93l-1054.49 0c53.21,-17.72 105.42,-37.36 156.63,-58.93l954.01 0zm-2490.65 58.93l-194.81 0 108.18 -30.98c28.57,10.9 57.45,21.23 86.63,30.98zm-1575.16 0l-1055.64 0c-18.95,-19.42 -37.66,-39.07 -56.16,-58.93l954.07 0c51.6,21.62 104.18,41.26 157.73,58.93zm3949.74 60.03c-20.32,19.89 -40.89,39.53 -61.7,58.93l-4822.06 0c-20.81,-19.4 -41.38,-39.04 -61.71,-58.93l1214.59 0c156.3,34.52 313.41,51.67 471.27,51.4 156.63,-0.26 311.74,-17.4 465.3,-51.4l634.64 0c158.04,35.73 317.18,53.46 477.39,53.16 158.76,-0.3 316.14,-18.02 472.11,-53.16l1210.17 0zm-127.72 118.95c-22.47,19.93 -45.19,39.58 -68.18,58.93l-4553.65 0c-22.99,-19.35 -45.71,-39 -68.18,-58.93l4690.02 0zm-141.39 118.96c-25.03,19.98 -50.35,39.63 -75.94,58.93l-4255.36 0c-25.59,-19.3 -50.9,-38.95 -75.93,-58.93l4407.23 0zm-157.89 118.95c-28.22,20.05 -56.75,39.7 -85.58,58.93l-3920.29 0c-28.82,-19.23 -57.35,-38.88 -85.57,-58.93l4091.44 0zm-178.65 118.96c-32.37,20.15 -65.08,39.8 -98.14,58.93l-3537.85 0c-33.06,-19.13 -65.78,-38.78 -98.14,-58.93l3734.14 0zm-206.18 118.95c-38.11,20.32 -76.61,39.99 -115.54,58.93l-3090.68 0c-38.93,-18.94 -77.44,-38.61 -115.55,-58.93l3321.78 0zm-245.55 118.96c-47.12,20.64 -94.75,40.34 -142.94,58.92l-2544.79 0c-48.19,-18.58 -95.83,-38.28 -142.95,-58.92l2830.69 0zm-311.03 118.95c-65.43,21.53 -131.68,41.22 -198.75,58.93l-1811.13 0c-67.06,-17.71 -133.32,-37.4 -198.74,-58.93l2208.63 0zm-468.14 118.95c-206.36,37.55 -418.97,57.18 -636.17,57.18 -217.2,0 -429.82,-19.63 -636.18,-57.18l1272.36 0z"/>
  <path class="fil2" d="M7762.73 0c1953.4,0 3536.95,1583.55 3536.95,3536.96 0,22.24 -0.43,44.38 -0.84,66.52l-248.58 -248.57c-94.49,-1733.78 -1530.17,-3110.58 -3287.54,-3110.58 -1758,0 -3194.09,1377.78 -3287.66,3112.42l-248.44 248.44c-0.43,-22.71 -0.86,-45.42 -0.86,-68.23 0,-1953.41 1583.54,-3536.96 3536.95,-3536.96zm3438.72 4367.14c-373.51,1552.83 -1771.27,2706.78 -3438.72,2706.78 -1666.66,0 -3063.84,-1152.87 -3438.19,-2704.59l373.34 373.34c481.13,1222.03 1671.98,2086.92 3064.85,2086.92 1393.88,0 2585.41,-866.17 3065.86,-2089.59l372.86 -372.86z"/>
  <path class="fil3" d="M7508.03 5806.11c-10.23,2.93 -20.49,5.78 -30.79,8.56 -334.05,89.79 -668.61,90.31 -1003.7,1.69 -335.22,-88.62 -626.05,-256.36 -872.52,-502.82l-1375.22 -1375.23 684.09 -684.1 1375.22 1375.23c99.96,99.87 211.08,173.29 333.33,220.06 25.48,54.05 53.24,106.95 83.29,158.68 93.81,161.54 208.5,310.14 344.13,445.76l0.77 0c135.31,135.23 282.65,248.94 441.99,341.09 6.45,3.73 12.92,7.42 19.41,11.08z"/>
  <path class="fil3" d="M8347.94 2566.6c246.47,246.47 414.72,536.66 504.52,870.71 89.78,334.05 90.43,667.43 1.82,1000.31 -23.49,87.97 -52.45,172.94 -86.91,254.92 -65.49,17.16 -135.09,25.59 -208.76,25.27 -107.57,-0.47 -207.38,-19.96 -299.4,-58.48 -90.33,-37.8 -174.41,-95.61 -252.22,-173.42l-0.37 0.38 -13.54 -13.84 0.04 -0.03 -2.48 -2.63 -1.35 -1.96 -0.25 0.25 -4.38 -4.64 -3.95 -4.72 -0.26 0.25 -0.09 -0.09 -0.3 0.29 -0.27 -0.29 0.1 -0.09 -4.03 -4.56 -2.29 -2.29 -3.94 -4.31 0.41 -0.37 -4.04 -4.43 -0.08 0.07 -2 -2.53 -0.09 0.09c-5.3,-6.17 -10.45,-12.58 -15.65,-18.85l-0.19 0.16 -9.27 -11.51 0.04 -0.04 -10.79 -14.24c-2.52,-2.55 -5.18,-6.68 -7.42,-9.63l-1.24 -1.27 -0.46 -0.61 0.2 -0.14 -0.26 -0.39 -0.76 -0.76 -3.12 -4.55 -2.47 -2.97 0.48 -0.32 -0.26 -0.39 -1.53 -1.53 -6.5 -9.5 -0.13 0.09 -1.67 -2.78 -3.12 -4.42 -0.17 0.12 -1.94 -3 0.19 -0.13 -12.99 -20.28 0.18 -0.11 -0.39 -0.65 -0.76 -0.75 -0.47 -0.74 -0.25 -0.24 -0.42 -0.68 -0.13 0.08 -0.24 -0.39 0.3 -0.18 -8.98 -15.22 -0.56 -1.13c50.01,-116.75 75.32,-243.5 75.88,-380.27 0.61,-141.56 -25.25,-272.11 -77.55,-391.61l3.22 -7.46 -49.82 -85.29c-12.71,-21.77 -27.36,-44.22 -43.91,-67.36 -29.17,-41.38 -62.14,-81.17 -98.9,-119.37l-4.82 -5 -1.8 -1.85c-2.53,-2.58 -5.07,-5.16 -7.63,-7.72l-138.69 -138.97 -0.14 0.14 -591.69 -591.7 -645.07 -645.07 680.57 -680.58 1375.22 1375.23z"/>
  <path class="fil2" d="M7900.29 1842.05l652.47 -652.36 684.09 684.1 -655.45 655.45c-30.44,-34.49 -62.1,-68.19 -95.01,-101.09l-586.1 -586.1z"/>
  <path class="fil2" d="M9924.46 5311.84c-246.47,246.48 -536.65,414.73 -870.7,504.52 -334.04,89.79 -667.43,90.44 -1000.31,1.82 -332.88,-88.75 -622.54,-256.23 -869.14,-502.69 -248.81,-248.82 -417.98,-540.31 -507.9,-874.36l-0.52 -2.08 -0.52 -2.08 -0.65 -1.95 -0.52 -2.08 -0.52 -2.08 -0.52 -2.09 -0.52 -2.08 -0.39 -1.17 -0.26 -0.78 -0.52 -2.08 -0.52 -2.08 -0.52 -2.09 -0.52 -2.08 -0.52 -1.95 -0.53 -2.09 -0.52 -2.07 -0.13 -0.53 -0.38 -1.56 -0.52 -2.08 -0.53 -2.08 -0.52 -1.96 -0.52 -2.08 -0.39 -2.08 -0.52 -2.08 -0.52 -1.69 0 -0.39 -0.52 -1.96 -0.52 -2.08 -0.52 -2.08 -0.39 -2.08 -0.52 -2.08 -0.52 -2.09 -0.52 -1.95 -0.13 -0.91 -0.26 -1.17 -0.52 -2.08 -0.52 -2.08 -0.39 -2.09 -0.53 -1.95 -0.52 -2.08 -0.38 -2.08 -0.53 -2.08 0 -0.13 -0.39 -1.96 -0.52 -2.08 -0.39 -1.95 -0.52 -2.08 -0.39 -2.08 -0.52 -2.09 -0.39 -2.08 -0.39 -1.3 -0.13 -0.65 -0.39 -2.08 -0.52 -2.08 -0.39 -2.08 -0.39 -2.09 -0.52 -2.08 -0.39 -1.95 -0.65 -2.6 -0.26 -1.56 -0.39 -2.09 -0.91 -4.03 -0.4 -2.08 -0.38 -2.08 -0.92 -3.91 0 -0.26 -0.39 -1.95 -0.39 -2.08 -0.39 -2.08c-58.81,-291.37 -50.62,-578.82 29.02,-872.02 59.82,-226.28 155.73,-432.43 287.63,-618.35l566.55 566.56 0.39 -0.39c50.91,51.01 93.07,105.12 126.47,162.29 -51.08,118.35 -76.29,247.55 -75.72,387.51 0.52,134.56 24.98,259.36 73.26,374.4l2.21 5.33 1.95 4.55 0.39 0.78 2.35 5.34 2.08 4.56 0.26 0.78 2.47 5.33 2.08 4.55 0.39 0.79 2.48 5.2 2.08 4.56 0.39 0.78 2.6 5.2 2.21 4.56 0.39 0.65 2.61 5.33 2.21 4.43 0.39 0.78 2.73 5.2 2.34 4.43 0.39 0.65 2.74 5.2 2.47 4.56 0.26 0.65 2.86 5.07 2.48 4.56 0.39 0.65 2.86 5.07 2.6 4.43 0.39 0.65 2.99 5.07 2.6 4.56 0.4 0.52 2.99 5.07 2.73 4.43 0.39 0.65 3.12 4.94 2.74 4.56 0.39 0.52 3.12 4.94 2.86 4.56 0.4 0.39 3.25 5.07 2.86 4.43 0.39 0.52 3.26 4.94 3.12 4.43 0.26 0.39 3.38 4.94 3.12 4.56 0.26 0.39 3.52 4.81 3.12 4.56 0.26 0.39 3.52 4.81 3.38 4.56 0.26 0.26 3.51 4.81 3.39 4.55 0.25 0.27 3.65 4.81 3.51 4.55 0.26 0.27 3.65 4.81 3.51 4.42 0.26 0.26 3.77 4.82 3.65 4.42 0.26 0.26 3.77 4.69 3.78 4.55 0.12 0.26 4.04 4.69 3.77 4.42 0.13 0.13 4.04 4.69 3.9 4.55 0.13 0.13 4.03 4.69 4.04 4.42 0.13 0.13 4.16 4.56 4.03 4.55 0.14 0.13 4.16 4.55 4.16 4.43 0.13 0.13 4.3 4.55 4.16 4.43 0.13 0.13 4.3 4.42 4.42 4.56 8.85 8.97c191.16,191.16 420.97,287.34 689.3,288.51 268.33,1.17 497.09,-92.78 686.04,-281.61l1375.21 -1375.22 680.58 680.58 -1375.22 1375.22z"/>
 </g>
</svg>
