<?xml version="1.0" encoding="UTF-8"?>
<!DOCTYPE svg PUBLIC "-//W3C//DTD SVG 1.1//EN" "http://www.w3.org/Graphics/SVG/1.1/DTD/svg11.dtd">
<!-- Creator: CorelDRAW -->
<svg xmlns="http://www.w3.org/2000/svg" xml:space="preserve" width="423.333mm" height="56.3995mm" version="1.1" style="shape-rendering:geometricPrecision; text-rendering:geometricPrecision; image-rendering:optimizeQuality; fill-rule:evenodd; clip-rule:evenodd"
viewBox="0 0 42333.32 5639.95"
 xmlns:xlink="http://www.w3.org/1999/xlink"
 xmlns:xodm="http://www.corel.com/coreldraw/odm/2003">
 <defs>
  <style type="text/css">
   <![CDATA[
    .str0 {stroke:white;stroke-width:16.93;stroke-miterlimit:22.9256}
    .fil3 {fill:black}
    .fil2 {fill:#CC9933}
    .fil0 {fill:white}
    .fil1 {fill:white;fill-rule:nonzero}
   ]]>
  </style>
 </defs>
 <g id="Layer_x0020_1">
  <metadata id="CorelCorpID_0Corel-Layer"/>
  <path class="fil0" d="M5041.35 5630.86l1922.59 0c-379.91,-284.26 -691.62,-637.63 -935.03,-1060.14 -8.89,-15.42 -17.62,-30.86 -26.24,-46.35 -8.63,15.49 -17.4,30.93 -26.29,46.35 -243.41,422.51 -555.11,775.88 -935.03,1060.14z"/>
  <path class="fil1" d="M28011.82 1549.29l0 194.46 -1411.77 0 0 -194.46 1411.77 0zm-3511.68 -198.07l0 -194.45 5632.87 0 0 194.45 -5632.87 0zm0 -392.51l0 -194.46 5632.87 0 0 194.46 -5632.87 0zm0 -392.53l0 -194.45 5632.87 0 0 194.45 -5632.87 0zm0 -392.51l0 -173.67 2099.91 0 1411.77 0 2121.19 0 0 173.67 -5632.87 0zm3511.68 1768.14l0 194.45 -1411.77 0 0 -194.45 1411.77 0zm0 392.52l0 194.46 -1411.77 0 0 -194.46 1411.77 0zm0 392.53l0 194.45 -1411.77 0 0 -194.45 1411.77 0zm0 392.51l0 194.46 -1411.77 0 0 -194.46 1411.77 0zm0 392.53l0 194.45 -1411.77 0 0 -194.45 1411.77 0zm0 392.51l0 194.46 -1411.77 0 0 -194.46 1411.77 0zm2121.19 392.53l0 194.45 -5632.87 0 0 -194.45 5632.87 0zm0 392.51l0 194.47 -5632.87 0 0 -194.47 5632.87 0zm0 392.53l0 194.45 -5632.87 0 0 -194.45 5632.87 0zm0 392.51l0 165.46 -2121.19 0 -1411.77 0 -2099.91 0 0 -165.46 5632.87 0zm1893.24 -3062.44l0 116.74 -1411.76 0 0 -194.46 3329.51 0 194.04 194.46 -1994.79 0 -117 -116.74zm-1411.76 -275.79l0 -194.45 2937.85 0 194.03 194.45 -3131.88 0zm0 -392.51l0 -194.46 2546.18 0 194.04 194.46 -2740.22 0zm0 -392.53l0 -194.45 2154.53 0 194.02 194.45 -2348.55 0zm0 -392.51l0 -194.46 1762.86 0 194.04 194.46 -1956.9 0zm0 -392.53l0 -194.45 1371.21 0 194.03 194.45 -1565.24 0zm0 -392.51l0 -173.67 1000.3 0 173.28 173.67 -1173.58 0zm1411.76 2553.19l0 194.45 -1411.76 0 0 -194.45 1411.76 0zm2309.42 0l194.03 194.45 -1993.07 0 -194.87 -194.45 1993.91 0zm-2309.42 392.51l0 194.46 -1411.76 0 0 -194.46 1411.76 0zm2701.08 0l115.36 115.62 0 -115.62 1411.77 0 0 194.46 -3324.44 0 -194.89 -194.46 1992.2 0zm115.36 -198.06l0 -194.45 1411.77 0 0 194.45 -1411.77 0zm0 -392.52l0 -194.46 1411.77 0 0 194.46 -1411.77 0zm0 -392.53l0 -194.45 1411.77 0 0 194.45 -1411.77 0zm0 -392.51l0 -194.46 1411.77 0 0 194.46 -1411.77 0zm0 -392.53l0 -194.45 1411.77 0 0 194.45 -1411.77 0zm0 -392.51l0 -194.46 1411.77 0 0 194.46 -1411.77 0zm0 -392.53l0 -194.45 1411.77 0 0 194.45 -1411.77 0zm0 -392.51l0 -173.67 1411.77 0 0 173.67 -1411.77 0zm-2816.44 3338.23l0 194.45 -1411.76 0 0 -194.45 1411.76 0zm4228.21 0l0 194.45 -2931.06 0 -194.87 -194.45 3125.93 0zm-4228.21 392.51l0 194.46 -1411.76 0 0 -194.46 1411.76 0zm4228.21 0l0 194.46 -2537.67 0 -194.89 -194.46 2732.56 0zm-4228.21 392.53l0 194.45 -1411.76 0 0 -194.45 1411.76 0zm4228.21 0l0 194.45 -2144.29 0 -194.87 -194.45 2339.16 0zm-4228.21 392.51l0 194.47 -1411.76 0 0 -194.47 1411.76 0zm4228.21 0l0 194.47 -1750.9 0 -194.89 -194.47 1945.79 0zm-4228.21 392.53l0 194.45 -1411.76 0 0 -194.45 1411.76 0zm4228.21 0l0 194.45 -1357.53 0 -194.87 -194.45 1552.4 0zm-4228.21 392.51l0 165.46 -1411.76 0 0 -165.46 1411.76 0zm4228.21 0l0 165.46 -993.2 0 -165.83 -165.46 1159.03 0zm6078.86 -1948.63l-4228.19 0 0 180.49 -1411.76 0 0 -180.49 0 -13.96 5639.95 0 0 13.96zm-5639.95 -212.03l0 -194.46 5639.95 0 0 194.46 -5639.95 0zm0 -392.52l0 -194.45 5639.95 0 0 194.45 -5639.95 0zm0 -392.52l0 -194.46 5639.95 0 0 194.46 -5639.95 0zm0 -392.53l0 -22.16 0 -172.29 1411.76 0 0 172.29 4228.19 0 0 22.16 -5639.95 0zm0 -392.51l0 -194.46 1411.76 0 0 194.46 -1411.76 0zm0 -392.53l0 -194.45 5639.95 0 0 194.45 -5639.95 0zm0 -392.51l0 -194.46 5639.95 0 0 194.46 -5639.95 0zm0 -392.53l0 -194.45 5639.95 0 0 194.45 -5639.95 0zm0 -392.51l0 -173.67 1411.76 0 4228.19 0 0 173.67 -5639.95 0zm1411.76 3730.74l0 194.46 -1411.76 0 0 -194.46 1411.76 0zm4228.19 392.53l0 194.45 -5639.95 0 0 -194.45 5639.95 0zm0 392.51l0 194.47 -5639.95 0 0 -194.47 5639.95 0zm0 392.53l0 194.45 -5639.95 0 0 -194.45 5639.95 0zm0 392.51l0 165.46 -4228.19 0 -1411.76 0 0 -165.46 5639.95 0z"/>
  <path class="fil1" d="M7646.93 379.54c435.11,-253.03 906.88,-379.54 1415.3,-379.54 508.43,0 979.02,126.51 1411.76,379.54 432.77,253.03 775.65,595.93 1028.68,1028.67 253.03,432.75 379.55,904.52 379.55,1415.32 0,506.04 -126.52,976.64 -379.55,1411.76 -253.03,435.11 -595.91,777.99 -1028.68,1028.67 -432.74,250.66 -904.51,375.99 -1415.29,375.99 -510.8,0 -982.57,-125.33 -1415.32,-375.99 -432.75,-250.68 -774.46,-593.56 -1025.12,-1028.67 -250.67,-435.12 -376.01,-905.72 -376.01,-1411.76 0,-510.8 125.34,-982.57 376.01,-1415.32 250.66,-432.74 593.55,-775.64 1028.67,-1028.67zm2412.05 1443.69c-274.31,-274.31 -606.56,-411.47 -996.75,-411.47 -390.18,0 -722.43,137.16 -996.74,411.47 -274.32,274.3 -411.47,606.55 -411.47,996.75 0,390.18 137.15,722.43 411.47,996.75 274.31,274.31 606.56,411.46 996.74,411.46 390.19,0 722.44,-137.15 996.75,-411.46 274.31,-274.32 411.48,-606.57 411.48,-996.75 0,-390.2 -137.17,-722.45 -411.48,-996.75zm3688.1 588.82l0 3227.9 -1411.76 0 0 -5639.95 1000.3 0 3227.9 3234.99 0 -3234.99 1411.76 0 0 5639.95 -993.2 0 -3235 -3227.9zm10285.78 3227.9l-4228.19 0 -1411.76 0 0 -1411.76 0 -4228.19 1411.76 0 0 4228.19 4228.19 0 0 1411.76z"/>
  <path class="fil2" d="M5639.95 2823.52c0,506.06 -125.33,976.65 -375.99,1411.77 -250.67,435.11 -592.38,778 -1025.13,1028.66 -432.75,250.67 -902.15,376 -1408.21,376 -510.79,0 -983.74,-125.33 -1418.86,-376 -435.11,-250.66 -779.19,-593.55 -1032.21,-1028.66 -253.03,-435.12 -379.55,-905.71 -379.55,-1411.77l0 -2823.52 1404.67 0 0 2823.52c0,387.82 138.34,718.89 415.01,993.2 276.68,274.31 611.29,411.47 1003.84,411.47 392.55,0 727.17,-137.16 1003.84,-411.47 99.13,-98.28 180.5,-203.85 244.11,-316.69 109.15,-77.28 205.63,-166.62 285.53,-271.68 72.92,-95.87 131.13,-203.45 171.54,-325.18 165.77,-124.02 186.75,-374.16 38.4,-522.51 -62.7,-62.7 -149.32,-101.49 -244.98,-101.49 -27.38,0 -54.03,3.18 -79.58,9.19l0 -2288.36 1397.57 0 0 2823.52z"/>
  <path class="fil0" d="M1592.03 279.55c382.33,-186.35 791.64,-279.55 1227.96,-279.55 440.03,0 851.72,94.78 1235.06,284.32l0 1849.49c-62.51,-110.67 -141.94,-214.2 -238.31,-310.57 -274.32,-274.31 -606.56,-411.47 -996.75,-411.47 -390.19,0 -722.44,137.16 -996.75,411.47 -92.75,92.75 -169.82,192.14 -231.21,298.14l0 -1841.83z"/>
  <path class="fil0" d="M2839.27 1595.68c106.35,0 209.51,13.62 307.86,39.18l-357.01 0c-33.57,-11.12 -67.67,-21.09 -102.24,-29.88 49.6,-6.14 100.12,-9.3 151.39,-9.3zm346.46 81.05c-6.38,6.16 -12.71,12.36 -18.99,18.63 -11.87,-8.24 -25.16,-14.6 -39.41,-18.63l58.4 0zm-130.76 0c-25.33,7.16 -47.59,21.67 -64.32,41.07 -29.18,-14.63 -58.91,-28.33 -89.13,-41.07l153.45 0zm222.99 0.14c32.08,12.36 63.5,26.03 94.21,40.96l-138.13 0c14.41,-13.89 29.06,-27.54 43.92,-40.96zm172.88 82.83c22.43,13.01 44.42,26.72 65.93,41.1l-292.97 0c-0.38,-14.39 -3.06,-28.21 -7.68,-41.1l234.72 0zm124.73 82.97c17.48,13.24 34.62,26.94 51.35,41.1l-375.48 0c-12.37,-9.79 -24.9,-19.38 -37.57,-28.78 1.65,-4.02 3.12,-8.13 4.38,-12.32l357.32 0zm98.38 82.96c14.25,13.38 28.2,27.07 41.8,41.1l-368.01 0c-14.95,-14 -30.17,-27.7 -45.67,-41.1l371.88 0zm80.55 82.97c11.87,13.45 23.46,27.15 34.74,41.1l-359.51 0c-12.76,-13.94 -25.78,-27.64 -39.05,-41.1l363.82 0zm67.11 82.97c9.97,13.49 19.68,27.19 29.11,41.1l-209.37 0c-6.45,-15.39 -15.7,-29.29 -27.13,-41.1l207.39 0zm56.25 82.97c8.39,13.53 16.52,27.23 24.38,41.1l-217.97 0c-11.49,-3.24 -23.01,-6.38 -34.57,-9.44 1.24,-7.26 1.88,-14.73 1.88,-22.34 0,-3.13 -0.11,-6.24 -0.32,-9.32l226.6 0zm47.05 82.97c7,13.55 13.76,27.25 20.25,41.1l-21.67 0c-35.28,-14.62 -71.03,-28.33 -107.22,-41.1l108.64 0zm70.61 165.94c4.63,13.6 9.02,27.3 13.17,41.11l-308.82 0c-6.04,-13.82 -12.28,-27.52 -18.71,-41.11l314.36 0zm-335 -41.87c-7.07,-13.82 -14.37,-27.53 -21.85,-41.1l221.38 0c32.99,12.9 65.57,26.61 97.73,41.1l-297.26 0zm-45.83 -82.97c-2.9,-4.88 -5.83,-9.75 -8.78,-14.59 6.86,-5.97 13.1,-12.62 18.62,-19.87 39.9,10.36 79.34,21.85 118.28,34.46l-128.12 0zm405.78 207.81c3.57,13.61 6.9,27.31 10,41.1l-297.23 0c-5.07,-13.79 -10.35,-27.5 -15.81,-41.1l303.04 0zm18.65 82.97c2.56,13.62 4.9,27.32 7.01,41.1l-285.07 0c-4.18,-13.78 -8.55,-27.49 -13.11,-41.1l291.17 0zm12.68 82.97c1.6,13.63 2.99,27.34 4.14,41.1l-272.3 0c-3.33,-13.77 -6.85,-27.48 -10.55,-41.1l278.71 0zm6.93 82.96c0.68,13.51 1.12,27.07 1.35,40.68l-258.94 0c-2.49,-13.62 -5.18,-27.18 -8.03,-40.68l265.62 0zm1.34 82.98c-0.24,13.62 -0.7,27.18 -1.38,40.67l-244.76 0c-1.71,-13.61 -3.61,-27.17 -5.68,-40.67l251.82 0zm-4.21 82.54c-1.16,13.76 -2.56,27.47 -4.17,41.1l-229.63 0c-0.96,-13.75 -2.13,-27.45 -3.46,-41.1l237.26 0zm-24.57 82.96c-9.26,14.04 -18.85,27.75 -28.77,41.11l-176.88 0c-0.22,-13.75 -0.62,-27.45 -1.21,-41.11l206.86 0zm-61.76 82.97c-11.8,14.11 -23.97,27.82 -36.51,41.11l-108.3 0c0.52,-13.65 0.86,-27.36 1.02,-41.11l143.79 0zm-78.54 82.97c-15.18,14.22 -30.8,27.91 -46.83,41.11l-24.87 0c1.26,-13.65 2.35,-27.35 3.26,-41.11l68.44 0zm-102.51 414.85c-11.31,13.96 -22.92,27.66 -34.81,41.1l-33.59 0c4.71,-11.88 9.27,-23.84 13.68,-35.87l11 -5.23 43.72 0zm-73.65 82.97c-7.13,7.34 -14.35,14.59 -21.67,21.75 3.26,-7.22 6.45,-14.47 9.6,-21.75l12.07 0zm-416.2 124.07c-39.96,-10.31 -79.26,-22.28 -117.81,-35.84 11.49,-1.65 22.95,-3.41 34.38,-5.26l380.16 0c-7.38,13.84 -14.97,27.54 -22.78,41.1l-273.95 0zm111.4 -82.97c45.12,-12.15 89.61,-25.86 133.39,-41.1l92.81 0c-6.27,13.82 -12.74,27.52 -19.42,41.1l-206.78 0zm242.95 -82.97l1.75 -0.72 -0.3 0.72 -1.45 0zm-857.9 -165.93c-0.78,-14.44 -3.86,-28.26 -8.9,-41.1l668.4 0c-49.94,16.27 -101.03,29.93 -152.78,41.1l-506.72 0zm-35.22 -82.97c-16.59,-17.87 -38.03,-31.16 -62.24,-37.77l-0.55 -3.33 956.82 0c-28.46,14.78 -57.6,28.46 -87.31,41.1l-806.72 0zm-69.13 -82.97c-1.91,-13.66 -3.67,-27.35 -5.28,-41.1l1068.09 0c-1.14,9.06 -2.37,18.11 -3.68,27.13 -7.3,4.74 -14.65,9.39 -22.07,13.97l-1037.06 0zm-9.7 -82.97c-1.28,-13.66 -2.42,-27.36 -3.41,-41.11l1083.99 0c-0.94,13.76 -2.08,27.46 -3.4,41.11l-1077.18 0zm-5.93 -82.97c-0.67,-13.67 -1.18,-27.36 -1.55,-41.11l1091.39 0c-0.17,13.75 -0.52,27.46 -1.07,41.11l-1088.77 0zm-2.18 -82.97l-0.01 -6.78c0,-11.47 0.11,-22.91 0.32,-34.33l1090.34 0c0.61,13.66 1.03,27.36 1.26,41.11l-1091.91 0zm1.56 -82.97c0.56,-13.74 1.28,-27.44 2.14,-41.1l1080.87 0c1.39,13.64 2.6,27.34 3.61,41.1l-1086.62 0zm5.27 -82.97c1.17,-13.6 2.49,-27.16 3.96,-40.67l1062.98 0c2.16,13.49 4.14,27.05 5.93,40.67l-1072.87 0zm9.04 -82.97c1.79,-13.61 3.75,-27.17 5.84,-40.68l1036.27 0c2.97,13.5 5.77,27.06 8.37,40.68l-1050.48 0zm12.82 -82.54c2.46,-13.75 5.07,-27.46 7.83,-41.1l1000.52 0c3.87,13.62 7.55,27.32 11.03,41.1l-1019.38 0zm16.83 -82.97c3.12,-13.76 6.4,-27.46 9.83,-41.1l955.38 0c4.77,13.61 9.36,27.31 13.73,41.1l-978.94 0zm20.9 -82.97c3.81,-13.76 7.78,-27.47 11.91,-41.1l900.4 0c5.73,13.6 11.26,27.3 16.59,41.1l-928.9 0zm25.13 -82.96c4.53,-13.78 9.23,-27.48 14.08,-41.11l834.97 0c6.77,13.58 13.34,27.28 19.68,41.11l-868.73 0zm29.54 -82.98c5.29,-13.78 10.74,-27.48 16.34,-41.1l758.38 0c7.9,13.56 15.59,27.26 23.06,41.1l-797.78 0zm150.87 -82.97c14.67,-11.02 26.97,-25.02 36.03,-41.1l427.6 0c11.23,16.81 26.2,30.9 43.72,41.1l-507.35 0zm51.01 -82.97c0.94,-5.31 1.56,-10.73 1.84,-16.24 32.57,-1.5 65.31,-2.36 98.25,-2.36 94.77,0 188.03,6.42 279.48,18.6l-379.57 0zm-362.54 1121.92c-17.53,3.95 -33.74,11.37 -47.89,21.48 -6.96,-7.7 -13.83,-15.49 -20.63,-23.35l68.23 0 0.29 1.87zm-103.39 -43.74c-10.83,-13.5 -21.42,-27.21 -31.76,-41.1l123.63 0c1.56,13.74 3.25,27.44 5.1,41.1l-96.97 0zm-61.79 -82.97c-9.36,-13.53 -18.47,-27.24 -27.37,-41.11l173.48 0c0.95,13.74 2.05,27.45 3.29,41.11l-149.4 0zm-53.25 -82.97c-8.07,-13.56 -15.91,-27.27 -23.55,-41.11l219 0c0.34,13.75 0.84,27.44 1.48,41.11l-196.93 0zm-45.75 -82.97c-6.92,-13.58 -13.64,-27.28 -20.13,-41.11l261.03 0c-0.21,11.42 -0.32,22.86 -0.32,34.32l0.01 6.79 -240.59 0zm-39 -82.97c-5.87,-13.6 -11.54,-27.3 -17,-41.1l300.17 0c-0.84,13.66 -1.54,27.36 -2.08,41.1l-281.09 0zm-32.82 -82.97c-4.85,-13.46 -9.5,-27.02 -13.96,-40.67l336.8 0c-1.42,13.51 -2.7,27.08 -3.83,40.67l-319.01 0zm-27.08 -82.97c-3.95,-13.48 -7.7,-27.04 -11.27,-40.68l371.74 0c-2.02,13.51 -3.91,27.07 -5.64,40.68l-354.83 0zm-21.55 -82.54c-3.14,-13.63 -6.08,-27.32 -8.82,-41.1l405.15 0c-2.67,13.64 -5.18,27.35 -7.56,41.1l-388.77 0zm-16.52 -82.97c-2.3,-13.64 -4.41,-27.34 -6.33,-41.1l437.35 0c-3.31,13.64 -6.47,27.34 -9.49,41.1l-421.53 0zm-11.54 -82.97c-1.5,-13.64 -2.81,-27.35 -3.93,-41.1l468.65 0c-3.97,13.64 -7.81,27.34 -11.48,41.1l-453.24 0zm70.65 -82.96c11.12,-11.87 20.1,-25.78 26.29,-41.11l394.07 0c-4.67,13.63 -9.18,27.33 -13.55,41.11l-406.81 0zm35.66 -82.98c0.15,-2.57 0.23,-5.16 0.23,-7.77 0,-10.4 -1.2,-20.52 -3.47,-30.23l7.9 -3.1 410.65 0c-5.39,13.62 -10.63,27.33 -15.71,41.1l-399.6 0zm122.06 -82.97c47.59,-15.38 95.91,-29.1 144.91,-41.1l155.6 0c4.86,8.63 10.66,16.66 17.26,23.95 -2.48,5.71 -4.93,11.42 -7.36,17.15l-310.41 0zm-153.65 -10.99c-10.37,-12.12 -22.89,-22.36 -36.96,-30.11l117.13 0c-26.96,9.52 -53.7,19.56 -80.17,30.11zm-73.36 -71.98c1.62,-13.76 3.46,-27.46 5.47,-41.1l453.18 0c-58.54,11.38 -116.24,25.11 -173,41.1l-285.65 0zm12.26 -82.97c2.44,-13.76 5.08,-27.47 7.91,-41.1l536.88 0c-13.3,11.37 -24.34,25.33 -32.32,41.1l-512.47 0zm17.25 -82.97c3.29,-13.78 6.78,-27.47 10.46,-41.1l651.23 0c-8.79,13.58 -17.42,27.29 -25.87,41.1l-635.82 0zm22.46 -82.97c4.17,-13.78 8.55,-27.49 13.12,-41.1l683.03 0c-9.84,13.57 -19.51,27.27 -29,41.1l-667.15 0zm27.92 -82.96c5.12,-13.8 10.43,-27.51 15.96,-41.1l646.19 0c4.5,14.98 11.59,28.86 20.73,41.1l-682.88 0zm33.73 -82.97c6.12,-13.82 12.44,-27.52 18.98,-41.1l583.26 0c8.26,3.93 16.48,7.94 24.65,12.03 -2.37,9.33 -3.74,19.06 -4.01,29.07l-622.88 0zm39.98 -82.97c6.94,-13.3 14.08,-26.49 21.42,-39.54l4.03 -1.56 318.8 0c41.18,11.95 81.59,25.68 121.16,41.1l-465.41 0zm670.51 211.44c14.06,5.07 29.22,7.85 45.03,7.85 19.26,0 37.55,-4.11 54.06,-11.49l61.12 0c17.08,13.33 33.85,27.04 50.31,41.1l-238.27 0c9.1,-12.6 18.35,-25.09 27.75,-37.46zm257.39 79.33c14.39,13.42 28.51,27.12 42.34,41.1l-383.99 0c8.88,-13.83 17.93,-27.52 27.17,-41.1l314.48 0zm82.14 82.97c6.83,7.48 13.59,15.03 20.27,22.65 -3.62,5.86 -6.81,12.03 -9.5,18.45l-412.74 0c-7.97,-15.77 -19,-29.72 -32.32,-41.1l434.29 0zm-15.64 1824.9c-31,14.99 -62.74,28.72 -95.14,41.1l-355.11 0c-7.89,-13.59 -15.6,-27.29 -23.14,-41.1l473.39 0zm-495.57 -41.87c-6.99,-13.6 -13.8,-27.3 -20.45,-41.1l368.75 0c55.71,16.91 112.78,30.67 171.02,41.1l-519.32 0zm-39.98 -82.97c-2.58,-5.73 -5.13,-11.47 -7.66,-17.23 24.38,0.89 48.86,1.38 73.46,1.38 50.94,0 101.42,-1.97 151.37,-5.79 17.02,7.52 34.2,14.73 51.54,21.64l-268.71 0zm308.86 207.81c-57.93,14.86 -117.52,25.58 -178.44,31.81 -6.8,-10.53 -13.48,-21.13 -20.07,-31.81l198.51 0zm-249.81 37.01c-17.99,0.79 -36.07,1.2 -54.25,1.2 -105,0 -206.89,-13.27 -304.11,-38.21l335.99 0c7.32,12.43 14.77,24.77 22.37,37.01zm-489.9 -78.88c-32.39,-12.38 -64.11,-26.1 -95.11,-41.1l516.52 0c7.23,13.8 14.62,27.5 22.17,41.1l-443.58 0zm-174.12 -82.97c-22.51,-13.01 -44.57,-26.72 -66.15,-41.1l620.8 0c6.38,13.79 12.92,27.49 19.62,41.1l-574.27 0zm-125.15 -82.97c-17.53,-13.24 -34.7,-26.95 -51.48,-41.1l532.57 0c56.22,9.1 113.24,15.81 170.96,20.01 2.96,7.06 5.96,14.08 8.99,21.09l-661.04 0zm-98.63 -82.97c-14.3,-13.36 -28.26,-27.07 -41.9,-41.1l293.38 0c43.77,15.23 88.25,28.95 133.38,41.1l-384.86 0zm-80.76 -82.97c-11.9,-13.44 -23.51,-27.14 -34.82,-41.1l165.75 0c30.16,14.46 60.77,28.17 91.76,41.1l-222.69 0zm-67.26 -82.96c-10,-13.49 -19.72,-27.2 -29.17,-41.1l72.5 0c23.85,14.2 48.04,27.9 72.53,41.1l-115.86 0zm-56.37 -82.97c-7.52,-12.12 -14.83,-24.37 -21.94,-36.75 17.92,12.55 36.06,24.8 54.42,36.75l-32.48 0zm-174.4 -497.82c-1.63,-13.63 -3.03,-27.34 -4.21,-41.1l625.25 0c5.2,13.79 10.61,27.5 16.21,41.1l-637.25 0zm-7.06 -82.97c-0.69,-13.49 -1.16,-27.05 -1.4,-40.67l601.06 0c4.26,13.64 8.71,27.2 13.34,40.67l-613 0zm7.43 -82.97c14.07,-13.76 28.32,-27.32 42.77,-40.68l526.15 0c3.41,13.63 7,27.19 10.79,40.68l-579.71 0zm89.38 -82.54c16,-13.94 32.21,-27.65 48.63,-41.1l412.64 0c2.62,13.76 5.44,27.47 8.44,41.1l-469.71 0zm101.39 -82.97c18.23,-13.99 36.69,-27.69 55.39,-41.1l291.03 0c1.84,13.76 3.87,27.46 6.08,41.1l-352.5 0zm115.97 -82.97c21.16,-14.07 42.58,-27.78 64.27,-41.1l157.41 0c1.08,13.75 2.33,27.46 3.77,41.1l-225.45 0zm135.53 -82.96c6.37,-3.58 12.75,-7.12 19.17,-10.63 2.8,3.7 5.8,7.25 8.98,10.63l-28.15 0zm212.57 539.24c6.18,13.82 12.56,27.52 19.14,41.11l-604.14 0c-5.33,-4.63 -10.64,-9.29 -15.92,-13.98 -9.64,-8.94 -19.18,-17.98 -28.64,-27.13l629.56 0zm40.21 82.97c7.24,13.83 14.67,27.54 22.32,41.11l-544.98 0c-17.8,-13.4 -35.34,-27.1 -52.64,-41.11l575.3 0zm46.79 82.97c8.4,13.86 17,27.56 25.83,41.11l-475.69 0c-20.87,-13.3 -41.45,-27.01 -61.73,-41.11l511.59 0zm54.08 82.98c9.71,13.87 19.64,27.58 29.8,41.1l-389.71 0c-25.39,-13.14 -50.42,-26.84 -75.09,-41.1l435 0zm62.4 82.97c11.22,13.9 22.67,27.61 34.37,41.1l-272.11 0c-33.25,-12.79 -66,-26.5 -98.23,-41.1l335.97 0zm53.38 82.97c-5.03,12.84 -8.12,26.66 -8.9,41.1l-1.17 0c-54.22,-11.4 -107.45,-25.14 -159.6,-41.1l169.67 0zm-916.37 -705.2c1.16,-13.76 2.53,-27.47 4.15,-41.1l42.03 0c-15.35,13.49 -30.51,27.19 -45.46,41.1l-0.72 0zm9.82 -82.97c2.11,-13.78 4.46,-27.48 7.04,-41.1l129.58 0c-17.27,13.44 -34.35,27.15 -51.2,41.1l-85.42 0zm15.69 -82.97c3.11,-13.79 6.47,-27.49 10.04,-41.1l224.93 0c-19.72,13.38 -39.2,27.09 -58.44,41.1l-176.53 0zm21.79 -82.96c4.16,-13.82 8.57,-27.52 13.19,-41.11l332.21 0c-23,13.29 -45.72,27 -68.17,41.11l-277.23 0zm28.29 -82.98c5.28,-13.82 10.79,-27.52 16.55,-41.1l351.26 0c-2.75,10.65 -4.22,21.81 -4.22,33.33 0,2.61 0.08,5.2 0.23,7.77l-363.82 0zm35.25 -82.97c6.5,-13.84 13.26,-27.55 20.26,-41.1l376.88 0c-18.16,10 -33.72,24.12 -45.43,41.1l-351.71 0zm42.9 -82.97c7.86,-13.87 15.99,-27.58 24.37,-41.1l365.38 0c-1.93,13.64 -3.68,27.35 -5.24,41.1l-384.51 0zm51.51 -82.97c9.42,-13.9 19.12,-27.61 29.1,-41.1l323.22 0c-2.71,13.64 -5.23,27.34 -7.57,41.1l-344.75 0zm61.48 -82.97c11.28,-13.95 22.87,-27.65 34.74,-41.1l275.05 0c-3.52,13.63 -6.86,27.33 -10,41.1l-299.79 0zm73.49 -82.97c13.6,-14.03 27.53,-27.73 41.8,-41.1l218.51 0c-4.37,13.62 -8.55,27.32 -12.54,41.1l-247.77 0zm88.83 -82.96c16.74,-14.16 33.85,-27.86 51.35,-41.1l149.46 0c-5.27,13.6 -10.34,27.3 -15.22,41.1l-185.59 0zm110.15 -82.97c21.51,-14.38 43.5,-28.09 65.95,-41.1l59.69 0c-6.22,13.59 -12.24,27.29 -18.06,41.1l-107.58 0zm144.66 -82.97l1.22 -0.59 -0.3 0.59 -0.92 0z"/>
  <path class="fil3" d="M3928.46 3363.64c-305.92,198.06 -652,313.12 -1062.13,313.12 -410.14,0 -839.95,-182.38 -1162.36,-416.18 -18.6,-42.33 -34.95,-85.87 -48.77,-130.54 325.31,267.89 756.83,473.21 1211.13,473.21 544.39,0 1244.86,-243.21 1402.15,-823.33l0.67 -0.35c-68.28,-17.9 -118.66,-80.03 -118.66,-153.93 0,-87.88 71.25,-159.12 159.13,-159.12 87.88,0 159.12,71.24 159.12,159.12 0,71.99 -47.8,132.8 -113.39,152.45 0.89,0.52 1.77,1.07 2.66,1.63 -66.76,258.21 -221.82,442.96 -429.55,583.92z"/>
  <circle class="fil2" cx="3088.97" cy="1804.01" r="62.43"/>
  <circle class="fil2" cx="3516.47" cy="2182.13" r="62.43"/>
  <circle class="fil2" cx="2866.04" cy="2190.6" r="62.43"/>
  <circle class="fil2" cx="2190.58" cy="2373.33" r="62.43"/>
  <circle class="fil2" cx="2660.75" cy="3462.29" r="62.43"/>
  <path class="fil0 str0" d="M3928.46 3363.64c-305.92,198.06 -652,313.12 -1062.13,313.12 -410.14,0 -839.95,-182.38 -1162.36,-416.18 -18.6,-42.33 -34.95,-85.87 -48.77,-130.54 325.31,267.89 756.83,473.21 1211.13,473.21 544.39,0 1244.86,-243.21 1402.15,-823.33l0.67 -0.35c-68.28,-17.9 -118.66,-80.03 -118.66,-153.93 0,-87.88 71.25,-159.12 159.13,-159.12 87.88,0 159.12,71.24 159.12,159.12 0,71.99 -47.8,132.8 -113.39,152.45 0.89,0.52 1.77,1.07 2.66,1.63 -66.76,258.21 -221.82,442.96 -429.55,583.92z"/>
 </g>
</svg>
