<?xml version="1.0" encoding="UTF-8"?>
<!DOCTYPE svg PUBLIC "-//W3C//DTD SVG 1.1//EN" "http://www.w3.org/Graphics/SVG/1.1/DTD/svg11.dtd">
<!-- Creator: CorelDRAW -->
<svg xmlns="http://www.w3.org/2000/svg" xml:space="preserve" width="219.302mm" height="105.948mm" version="1.1" style="shape-rendering:geometricPrecision; text-rendering:geometricPrecision; image-rendering:optimizeQuality; fill-rule:evenodd; clip-rule:evenodd"
viewBox="0 0 21930.18 10594.83"
 xmlns:xlink="http://www.w3.org/1999/xlink"
 xmlns:xodm="http://www.corel.com/coreldraw/odm/2003">
 <defs>
  <style type="text/css">
   <![CDATA[
    .str0 {stroke:white;stroke-width:20;stroke-miterlimit:22.9256}
    .fil0 {fill:black}
    .fil4 {fill:#CC9933}
    .fil2 {fill:white}
    .fil1 {fill:#CC9933;fill-rule:nonzero}
    .fil3 {fill:white;fill-rule:nonzero}
   ]]>
  </style>
 </defs>
 <g id="Layer_x0020_1">
  <metadata id="CorelCorpID_0Corel-Layer"/>
  <path class="fil0" d="M2531.57 10594.83l998.64 0c-197.34,-147.65 -359.24,-331.2 -485.68,-550.66 -4.62,-8.01 -9.15,-16.03 -13.63,-24.08 -4.48,8.05 -9.04,16.07 -13.65,24.08 -126.44,219.46 -288.34,403.01 -485.68,550.66z"/>
  <path class="fil1" d="M2929.57 9127.62c0,262.86 -65.11,507.3 -195.31,733.31 -130.2,226.01 -307.69,404.12 -532.48,534.33 -224.78,130.2 -468.6,195.3 -731.47,195.3 -265.32,0 -510.98,-65.1 -737,-195.3 -226.01,-130.21 -404.73,-308.32 -536.17,-534.33 -131.43,-226.01 -197.14,-470.45 -197.14,-733.31l0 -1466.63 729.63 0 0 1466.63c0,201.45 71.85,373.41 215.57,515.9 143.71,142.48 317.52,213.73 521.42,213.73 203.91,0 377.72,-71.25 521.43,-213.73 143.72,-142.49 215.58,-314.45 215.58,-515.9l0 -1466.63 725.94 0 0 1466.63z"/>
  <path class="fil2" d="M2559.56 10585.84l998.65 0c-197.34,-147.65 -359.24,-331.21 -485.68,-550.67 -4.62,-8.01 -9.15,-16.03 -13.63,-24.08 -4.48,8.05 -9.04,16.07 -13.65,24.08 -126.44,219.46 -288.35,403.02 -485.69,550.67z"/>
  <path class="fil3" d="M14491.15 8465.74l0 101.01 -733.32 0 0 -101.01 733.32 0zm-1824.08 -102.88l0 -101 2925.89 0 0 101 -2925.89 0zm0 -203.88l0 -101.01 2925.89 0 0 101.01 -2925.89 0zm0 -203.89l0 -101.01 2925.89 0 0 101.01 -2925.89 0zm0 -203.89l0 -90.21 1090.76 0 733.32 0 1101.81 0 0 90.21 -2925.89 0zm1824.08 918.43l0 101.01 -733.32 0 0 -101.01 733.32 0zm0 203.89l0 101.01 -733.32 0 0 -101.01 733.32 0zm0 203.89l0 101 -733.32 0 0 -101 733.32 0zm0 203.88l0 101.01 -733.32 0 0 -101.01 733.32 0zm0 203.89l0 101.01 -733.32 0 0 -101.01 733.32 0zm0 203.89l0 101.01 -733.32 0 0 -101.01 733.32 0zm1101.81 203.89l0 101 -2925.89 0 0 -101 2925.89 0zm0 203.88l0 101.01 -2925.89 0 0 -101.01 2925.89 0zm0 203.89l0 101 -2925.89 0 0 -101 2925.89 0zm0 203.89l0 85.94 -1101.81 0 -733.32 0 -1090.76 0 0 -85.94 2925.89 0zm983.41 -1590.73l0 60.64 -733.31 0 0 -101.01 1729.45 0 100.79 101.01 -1036.16 0 -60.77 -60.64zm-733.31 -143.25l0 -101.01 1526.01 0 100.78 101.01 -1626.79 0zm0 -203.89l0 -101.01 1322.56 0 100.79 101.01 -1423.35 0zm0 -203.89l0 -101 1119.12 0 100.79 101 -1219.91 0zm0 -203.88l0 -101.01 915.68 0 100.79 101.01 -1016.47 0zm0 -203.89l0 -101.01 712.25 0 100.78 101.01 -813.03 0zm0 -203.89l0 -90.21 519.58 0 90.01 90.21 -609.59 0zm733.31 1326.21l0 101 -733.31 0 0 -101 733.31 0zm1199.58 0l100.79 101 -1035.26 0 -101.23 -101 1035.7 0zm-1199.58 203.88l0 101.01 -733.31 0 0 -101.01 733.31 0zm1403.02 0l59.93 60.06 0 -60.06 733.31 0 0 101.01 -1726.82 0 -101.23 -101.01 1034.81 0zm59.93 -102.88l0 -101 733.31 0 0 101 -733.31 0zm0 -203.88l0 -101.01 733.31 0 0 101.01 -733.31 0zm0 -203.89l0 -101.01 733.31 0 0 101.01 -733.31 0zm0 -203.89l0 -101.01 733.31 0 0 101.01 -733.31 0zm0 -203.89l0 -101 733.31 0 0 101 -733.31 0zm0 -203.88l0 -101.01 733.31 0 0 101.01 -733.31 0zm0 -203.89l0 -101.01 733.31 0 0 101.01 -733.31 0zm0 -203.89l0 -90.21 733.31 0 0 90.21 -733.31 0zm-1462.95 1733.98l0 101.01 -733.31 0 0 -101.01 733.31 0zm2196.26 0l0 101.01 -1522.48 0 -101.22 -101.01 1623.7 0zm-2196.26 203.89l0 101.01 -733.31 0 0 -101.01 733.31 0zm2196.26 0l0 101.01 -1318.14 0 -101.23 -101.01 1419.37 0zm-2196.26 203.89l0 101 -733.31 0 0 -101 733.31 0zm2196.26 0l0 101 -1113.81 0 -101.22 -101 1215.03 0zm-2196.26 203.88l0 101.01 -733.31 0 0 -101.01 733.31 0zm2196.26 0l0 101.01 -909.47 0 -101.23 -101.01 1010.7 0zm-2196.26 203.89l0 101 -733.31 0 0 -101 733.31 0zm2196.26 0l0 101 -705.14 0 -101.22 -101 806.36 0zm-2196.26 203.89l0 85.94 -733.31 0 0 -85.94 733.31 0zm2196.26 0l0 85.94 -515.9 0 -86.13 -85.94 602.03 0zm3157.55 -1012.19l-2196.25 0 0 93.76 -733.32 0 0 -93.76 0 -7.25 2929.57 0 0 7.25zm-2929.57 -110.13l0 -101.01 2929.57 0 0 101.01 -2929.57 0zm0 -203.89l0 -101 2929.57 0 0 101 -2929.57 0zm0 -203.88l0 -101.01 2929.57 0 0 101.01 -2929.57 0zm0 -203.89l0 -11.52 0 -89.49 733.32 0 0 89.49 2196.25 0 0 11.52 -2929.57 0zm0 -203.89l0 -101.01 733.32 0 0 101.01 -733.32 0zm0 -203.89l0 -101 2929.57 0 0 101 -2929.57 0zm0 -203.88l0 -101.01 2929.57 0 0 101.01 -2929.57 0zm0 -203.89l0 -101.01 2929.57 0 0 101.01 -2929.57 0zm0 -203.89l0 -90.21 733.32 0 2196.25 0 0 90.21 -2929.57 0zm733.32 1937.87l0 101.01 -733.32 0 0 -101.01 733.32 0zm2196.25 203.89l0 101 -2929.57 0 0 -101 2929.57 0zm0 203.88l0 101.01 -2929.57 0 0 -101.01 2929.57 0zm0 203.89l0 101 -2929.57 0 0 -101 2929.57 0zm0 203.89l0 85.94 -2196.25 0 -733.32 0 0 -85.94 2929.57 0z"/>
  <path class="fil3" d="M3912.98 7858.14c226.01,-131.43 471.06,-197.15 735.15,-197.15 264.09,0 508.53,65.72 733.32,197.15 224.79,131.43 402.89,309.54 534.32,534.32 131.44,224.79 197.15,469.84 197.15,735.16 0,262.86 -65.71,507.3 -197.15,733.31 -131.43,226.01 -309.53,404.12 -534.32,534.33 -224.79,130.2 -469.84,195.3 -735.15,195.3 -265.33,0 -510.38,-65.1 -735.16,-195.3 -224.79,-130.21 -402.28,-308.32 -532.48,-534.33 -130.21,-226.01 -195.31,-470.45 -195.31,-733.31 0,-265.32 65.1,-510.37 195.31,-735.16 130.2,-224.78 308.3,-402.89 534.32,-534.32zm1252.9 749.89c-142.49,-142.48 -315.07,-213.72 -517.75,-213.72 -202.67,0 -375.25,71.24 -517.73,213.72 -142.5,142.49 -213.74,315.07 -213.74,517.75 0,202.67 71.24,375.25 213.74,517.74 142.48,142.48 315.06,213.73 517.73,213.73 202.68,0 375.26,-71.25 517.75,-213.73 142.48,-142.49 213.73,-315.07 213.73,-517.74 0,-202.68 -71.25,-375.26 -213.73,-517.75zm1915.71 305.86l0 1676.67 -733.32 0 0 -2929.57 519.59 0 1676.68 1680.36 0 -1680.36 733.31 0 0 2929.57 -515.9 0 -1680.36 -1676.67zm5342.76 1676.67l-2196.26 0 -733.31 0 0 -733.31 0 -2196.26 733.31 0 0 2196.26 2196.26 0 0 733.31z"/>
  <path class="fil4" d="M14513.66 3552.87c0,636.78 -157.7,1228.92 -473.12,1776.43 -315.41,547.51 -745.38,978.97 -1289.92,1294.38 -544.54,315.42 -1135.19,473.13 -1771.97,473.13 -642.73,0 -1237.85,-157.71 -1785.36,-473.13 -547.51,-315.41 -980.46,-746.87 -1298.85,-1294.38 -318.39,-547.51 -477.58,-1139.65 -477.58,-1776.43l0 -3552.87 1767.5 0 0 3552.87c0,488 174.08,904.58 522.22,1249.75 348.15,345.17 769.19,517.75 1263.14,517.75 493.95,0 915,-172.58 1263.15,-517.75 124.73,-123.67 227.11,-256.5 307.15,-398.5 137.35,-97.24 258.75,-209.65 359.3,-341.85 91.75,-120.64 164.99,-256 215.84,-409.18 208.59,-156.06 234.99,-470.82 48.33,-657.48 -78.9,-78.9 -187.9,-127.71 -308.27,-127.71 -34.45,0 -67.98,4 -100.14,11.57l0 -2879.47 1758.58 0 0 3552.87z"/>
  <path class="fil2" d="M9420.12 351.76c481.09,-234.49 996.13,-351.76 1545.15,-351.76 553.7,0 1071.73,119.26 1554.1,357.76l0 2327.24c-78.66,-139.27 -178.61,-269.54 -299.88,-390.8 -345.17,-345.17 -763.24,-517.76 -1254.22,-517.76 -490.97,0 -909.05,172.59 -1254.21,517.76 -116.71,116.71 -213.69,241.77 -290.94,375.15l0 -2317.59z"/>
  <path class="fil2" d="M10989.54 2007.86c133.82,0 263.62,17.14 387.38,49.3l-449.23 0c-42.24,-13.99 -85.15,-26.54 -128.65,-37.59 62.42,-7.73 125.99,-11.71 190.5,-11.71zm435.96 101.98c-8.03,7.75 -16.01,15.56 -23.91,23.45 -14.93,-10.38 -31.65,-18.37 -49.59,-23.45l73.5 0zm-164.54 0c-31.88,9.02 -59.89,27.27 -80.94,51.68 -36.72,-18.4 -74.12,-35.64 -112.15,-51.68l193.09 0zm280.58 0.18c40.37,15.55 79.91,32.76 118.54,51.54l-173.8 0c18.14,-17.47 36.57,-34.65 55.26,-51.54zm217.54 104.22c28.23,16.38 55.9,33.63 82.96,51.72l-368.64 0c-0.49,-18.11 -3.86,-35.49 -9.67,-51.72l295.35 0zm156.95 104.4c22,16.67 43.56,33.91 64.61,51.72l-472.47 0c-15.57,-12.31 -31.32,-24.38 -47.28,-36.21 2.09,-5.05 3.93,-10.23 5.52,-15.51l449.62 0zm123.79 104.4c17.94,16.83 35.48,34.07 52.6,51.72l-463.07 0c-18.81,-17.61 -37.97,-34.86 -57.47,-51.72l467.94 0zm101.36 104.41c14.94,16.92 29.52,34.15 43.72,51.71l-452.39 0c-16.05,-17.54 -32.43,-34.79 -49.13,-51.71l457.8 0zm84.44 104.4c12.55,16.97 24.77,34.21 36.63,51.71l-263.45 0c-8.11,-19.36 -19.76,-36.86 -34.14,-51.71l260.96 0zm70.78 104.4c10.56,17.02 20.79,34.26 30.68,51.71l-274.28 0c-14.45,-4.07 -28.94,-8.03 -43.49,-11.88 1.55,-9.14 2.37,-18.53 2.37,-28.11 0,-3.94 -0.14,-7.85 -0.41,-11.72l285.13 0zm59.21 104.4c8.8,17.05 17.31,34.29 25.48,51.72l-27.27 0c-44.39,-18.4 -89.38,-35.65 -134.92,-51.72l136.71 0zm88.85 208.8c5.82,17.11 11.35,34.35 16.57,51.73l-388.59 0c-7.6,-17.38 -15.45,-34.63 -23.55,-51.73l395.57 0zm-421.53 -52.68c-8.91,-17.4 -18.08,-34.64 -27.51,-51.72l278.58 0c41.51,16.23 82.5,33.48 122.97,51.72l-374.04 0zm-57.68 -104.4c-3.65,-6.15 -7.33,-12.27 -11.04,-18.37 8.63,-7.5 16.48,-15.88 23.42,-25 50.21,13.03 99.84,27.5 148.84,43.37l-161.22 0zm510.6 261.48c4.49,17.13 8.68,34.37 12.58,51.73l-374 0c-6.39,-17.37 -13.02,-34.61 -19.9,-51.73l381.32 0zm23.47 104.4c3.22,17.14 6.17,34.39 8.82,51.73l-358.7 0c-5.26,-17.35 -10.76,-34.6 -16.5,-51.73l366.38 0zm15.95 104.4c2.02,17.16 3.77,34.4 5.21,51.73l-342.64 0c-4.18,-17.33 -8.61,-34.58 -13.27,-51.73l350.7 0zm8.73 104.4c0.85,16.99 1.41,34.06 1.69,51.18l-325.83 0c-3.13,-17.14 -6.51,-34.2 -10.09,-51.18l334.23 0zm1.68 104.41c-0.3,17.14 -0.88,34.2 -1.74,51.18l-307.98 0c-2.15,-17.13 -4.55,-34.2 -7.14,-51.18l316.86 0zm-5.29 103.86c-1.47,17.32 -3.22,34.56 -5.26,51.72l-288.94 0c-1.21,-17.31 -2.68,-34.54 -4.36,-51.72l298.56 0zm-30.93 104.4c-11.64,17.66 -23.72,34.91 -36.2,51.72l-222.57 0c-0.27,-17.3 -0.78,-34.54 -1.52,-51.72l260.29 0zm-77.71 104.4c-14.84,17.75 -30.16,34.99 -45.94,51.72l-136.27 0c0.65,-17.18 1.08,-34.42 1.28,-51.72l180.93 0zm-98.82 104.4c-19.11,17.88 -38.76,35.12 -58.93,51.72l-31.29 0c1.59,-17.17 2.96,-34.41 4.1,-51.72l86.12 0zm-129 522.01c-14.22,17.56 -28.83,34.81 -43.8,51.72l-42.26 0c5.92,-14.96 11.66,-30 17.21,-45.14l13.85 -6.58 55 0zm-92.66 104.4c-8.97,9.23 -18.06,18.36 -27.27,27.36 4.09,-9.08 8.11,-18.2 12.07,-27.36l15.2 0zm-523.71 156.12c-50.28,-12.98 -99.74,-28.04 -148.25,-45.11 14.46,-2.07 28.88,-4.28 43.26,-6.61l478.36 0c-9.28,17.41 -18.84,34.66 -28.66,51.72l-344.71 0zm140.16 -104.4c56.79,-15.29 112.77,-32.55 167.86,-51.72l116.78 0c-7.89,17.39 -16.03,34.62 -24.44,51.72l-260.2 0zm305.72 -104.4l2.2 -0.92 -0.38 0.92 -1.82 0zm-1079.51 -208.8c-0.98,-18.17 -4.86,-35.56 -11.19,-51.72l841.05 0c-62.84,20.48 -127.13,37.66 -192.25,51.72l-637.61 0zm-44.32 -104.4c-20.87,-22.48 -47.85,-39.21 -78.31,-47.53l-0.69 -4.19 1203.97 0c-35.81,18.6 -72.47,35.82 -109.86,51.72l-1015.11 0zm-86.98 -104.41c-2.41,-17.18 -4.62,-34.41 -6.64,-51.71l1343.98 0c-1.44,11.41 -2.98,22.79 -4.63,34.14 -9.18,5.96 -18.44,11.82 -27.76,17.57l-1304.95 0zm-12.21 -104.4c-1.61,-17.19 -3.05,-34.42 -4.28,-51.72l1363.99 0c-1.18,17.31 -2.62,34.55 -4.28,51.72l-1355.43 0zm-7.46 -104.4c-0.84,-17.19 -1.49,-34.43 -1.95,-51.72l1373.3 0c-0.2,17.3 -0.65,34.54 -1.33,51.72l-1370.02 0zm-2.74 -104.4l-0.01 -8.53c0,-14.43 0.13,-28.83 0.4,-43.19l1371.98 0c0.77,17.18 1.3,34.42 1.59,51.72l-1373.96 0zm1.96 -104.4c0.7,-17.29 1.61,-34.53 2.69,-51.72l1360.08 0c1.75,17.17 3.27,34.41 4.53,51.72l-1367.3 0zm6.63 -104.4c1.47,-17.12 3.14,-34.18 4.98,-51.18l1337.56 0c2.73,16.98 5.21,34.04 7.46,51.18l-1350 0zm11.37 -104.41c2.26,-17.12 4.72,-34.18 7.35,-51.18l1303.95 0c3.74,16.98 7.26,34.04 10.53,51.18l-1321.83 0zm16.14 -103.85c3.09,-17.31 6.38,-34.55 9.86,-51.73l1258.96 0c4.87,17.14 9.49,34.39 13.87,51.73l-1282.69 0zm21.17 -104.4c3.94,-17.32 8.05,-34.56 12.38,-51.73l1202.16 0c6.01,17.13 11.77,34.37 17.27,51.73l-1231.81 0zm26.3 -104.4c4.8,-17.33 9.8,-34.57 14.99,-51.73l1132.98 0c7.21,17.11 14.17,34.35 20.88,51.73l-1168.85 0zm31.63 -104.4c5.7,-17.34 11.61,-34.58 17.71,-51.73l1050.66 0c8.51,17.09 16.77,34.33 24.76,51.73l-1093.13 0zm37.17 -104.41c6.65,-17.34 13.51,-34.59 20.56,-51.72l954.28 0c9.93,17.06 19.61,34.31 29.01,51.72l-1003.85 0zm189.84 -104.4c18.45,-13.88 33.94,-31.49 45.33,-51.72l538.06 0c14.13,21.15 32.96,38.88 55.01,51.72l-638.4 0zm64.18 -104.41c1.18,-6.68 1.96,-13.49 2.32,-20.43 40.98,-1.88 82.17,-2.97 123.62,-2.97 119.26,0 236.61,8.08 351.68,23.4l-477.62 0zm-456.18 1411.73c-22.06,4.96 -42.46,14.3 -60.26,27.03 -8.76,-9.7 -17.41,-19.49 -25.96,-29.39l85.85 0 0.37 2.36zm-130.1 -55.05c-13.63,-16.99 -26.95,-34.23 -39.97,-51.71l155.57 0c1.96,17.29 4.1,34.53 6.42,51.71l-122.02 0zm-77.75 -104.4c-11.78,-17.03 -23.25,-34.27 -34.44,-51.72l218.29 0c1.2,17.29 2.57,34.53 4.13,51.72l-187.98 0zm-67.01 -104.4c-10.15,-17.06 -20.02,-34.31 -29.63,-51.72l275.57 0c0.43,17.29 1.06,34.53 1.86,51.72l-247.8 0zm-57.57 -104.4c-8.7,-17.08 -17.15,-34.33 -25.33,-51.72l328.46 0c-0.26,14.36 -0.4,28.75 -0.4,43.18l0.02 8.54 -302.75 0zm-49.07 -104.4c-7.39,-17.11 -14.52,-34.35 -21.39,-51.72l377.7 0c-1.05,17.19 -1.93,34.43 -2.61,51.72l-353.7 0zm-41.3 -104.4c-6.1,-16.94 -11.95,-34.01 -17.57,-51.18l423.81 0c-1.79,17 -3.4,34.07 -4.83,51.18l-401.41 0zm-34.07 -104.41c-4.97,-16.96 -9.7,-34.02 -14.19,-51.18l467.77 0c-2.54,17 -4.91,34.06 -7.09,51.18l-446.49 0zm-27.12 -103.85c-3.95,-17.15 -7.64,-34.39 -11.1,-51.73l509.81 0c-3.37,17.18 -6.53,34.42 -9.52,51.73l-489.19 0zm-20.79 -104.4c-2.89,-17.17 -5.55,-34.41 -7.96,-51.73l550.32 0c-4.16,17.17 -8.14,34.41 -11.94,51.73l-530.42 0zm-14.52 -104.4c-1.88,-17.18 -3.53,-34.42 -4.94,-51.73l589.71 0c-5,17.17 -9.83,34.41 -14.45,51.73l-570.32 0zm88.9 -104.4c14,-14.94 25.29,-32.44 33.08,-51.73l495.87 0c-5.88,17.16 -11.56,34.39 -17.06,51.73l-511.89 0zm44.88 -104.41c0.19,-3.24 0.28,-6.5 0.28,-9.78 0,-13.09 -1.51,-25.82 -4.36,-38.04l9.94 -3.9 516.73 0c-6.79,17.14 -13.38,34.38 -19.78,51.72l-502.81 0zm153.58 -104.4c59.88,-19.36 120.69,-36.62 182.35,-51.72l195.79 0c6.12,10.85 13.42,20.96 21.72,30.14 -3.12,7.17 -6.2,14.36 -9.26,21.58l-390.6 0zm-193.34 -13.83c-13.04,-15.26 -28.79,-28.14 -46.5,-37.89l147.39 0c-33.94,11.98 -67.58,24.61 -100.89,37.89zm-92.31 -90.58c2.05,-17.31 4.36,-34.55 6.88,-51.71l570.25 0c-73.66,14.32 -146.27,31.6 -217.69,51.71l-359.44 0zm15.43 -104.4c3.07,-17.32 6.39,-34.56 9.96,-51.71l675.55 0c-16.73,14.3 -30.62,31.87 -40.66,51.71l-644.85 0zm21.71 -104.4c4.14,-17.34 8.52,-34.57 13.16,-51.71l819.45 0c-11.06,17.08 -21.92,34.33 -32.55,51.71l-800.06 0zm28.25 -104.4c5.26,-17.35 10.76,-34.59 16.52,-51.72l859.47 0c-12.39,17.08 -24.56,34.32 -36.5,51.72l-839.49 0zm35.14 -104.4c6.44,-17.36 13.13,-34.61 20.08,-51.72l813.11 0c5.67,18.86 14.58,36.32 26.09,51.72l-859.28 0zm42.44 -104.4c7.7,-17.39 15.66,-34.62 23.89,-51.72l733.92 0c10.39,4.95 20.73,10 31.02,15.14 -2.98,11.75 -4.72,23.99 -5.06,36.58l-783.77 0zm50.31 -104.4c8.73,-16.74 17.72,-33.33 26.95,-49.75l5.07 -1.97 401.16 0c51.81,15.05 102.66,32.32 152.46,51.72l-585.64 0zm843.71 266.06c17.69,6.38 36.77,9.87 56.66,9.87 24.23,0 47.25,-5.16 68.02,-14.45l76.92 0c21.48,16.77 42.59,34.03 63.3,51.72l-299.82 0c11.45,-15.86 23.09,-31.57 34.92,-47.14zm323.88 99.83c18.1,16.88 35.87,34.12 53.27,51.71l-483.18 0c11.18,-17.4 22.57,-34.64 34.19,-51.71l395.72 0zm103.35 104.4c8.6,9.41 17.11,18.91 25.51,28.5 -4.56,7.37 -8.57,15.13 -11.95,23.21l-519.36 0c-10.03,-19.84 -23.91,-37.4 -40.66,-51.71l546.46 0zm-19.68 2296.28c-39.01,18.87 -78.94,36.14 -119.71,51.72l-446.83 0c-9.93,-17.1 -19.64,-34.34 -29.13,-51.72l595.67 0zm-623.58 -52.68c-8.79,-17.12 -17.37,-34.35 -25.73,-51.72l464 0c70.11,21.28 141.92,38.59 215.2,51.72l-653.47 0zm-50.3 -104.4c-3.25,-7.21 -6.46,-14.44 -9.65,-21.69 30.68,1.13 61.49,1.74 92.45,1.74 64.09,0 127.61,-2.47 190.46,-7.29 21.42,9.47 43.04,18.55 64.86,27.24l-338.12 0zm388.64 261.48c-72.89,18.71 -147.88,32.19 -224.54,40.03 -8.55,-13.25 -16.96,-26.59 -25.24,-40.03l249.78 0zm-314.34 46.58c-22.63,0.99 -45.39,1.51 -68.26,1.51 -132.12,0 -260.34,-16.71 -382.66,-48.09l422.77 0c9.21,15.64 18.59,31.17 28.15,46.58zm-616.44 -99.26c-40.76,-15.57 -80.68,-32.84 -119.68,-51.72l649.94 0c9.1,17.37 18.39,34.61 27.9,51.72l-558.16 0zm-219.1 -104.4c-28.33,-16.37 -56.09,-33.63 -83.24,-51.72l781.16 0c8.03,17.36 16.26,34.59 24.69,51.72l-722.61 0zm-157.48 -104.4c-22.06,-16.67 -43.66,-33.91 -64.78,-51.72l670.14 0c70.74,11.45 142.5,19.9 215.12,25.18 3.73,8.88 7.49,17.72 11.32,26.54l-831.8 0zm-124.11 -104.4c-17.99,-16.82 -35.56,-34.06 -52.72,-51.72l369.16 0c55.08,19.16 111.05,36.43 167.84,51.72l-484.28 0zm-101.61 -104.4c-14.98,-16.91 -29.59,-34.16 -43.82,-51.72l208.56 0c37.95,18.19 76.46,35.45 115.47,51.72l-280.21 0zm-84.64 -104.4c-12.58,-16.98 -24.82,-34.22 -36.7,-51.72l91.22 0c30.01,17.87 60.45,35.11 91.27,51.72l-145.79 0zm-70.94 -104.4c-9.46,-15.24 -18.66,-30.66 -27.6,-46.24 22.55,15.79 45.38,31.2 68.47,46.24l-40.87 0zm-219.45 -626.41c-2.04,-17.16 -3.81,-34.4 -5.29,-51.72l786.76 0c6.54,17.36 13.34,34.6 20.39,51.72l-801.86 0zm-8.87 -104.4c-0.87,-16.98 -1.46,-34.04 -1.77,-51.18l756.32 0c5.36,17.17 10.96,34.23 16.79,51.18l-771.34 0zm9.35 -104.41c17.69,-17.31 35.63,-34.37 53.81,-51.18l662.06 0c4.29,17.15 8.81,34.21 13.57,51.18l-729.44 0zm112.47 -103.85c20.12,-17.55 40.53,-34.79 61.18,-51.73l519.23 0c3.3,17.33 6.85,34.57 10.62,51.73l-591.03 0zm127.57 -104.4c22.94,-17.61 46.17,-34.86 69.69,-51.73l366.22 0c2.31,17.32 4.86,34.56 7.64,51.73l-443.55 0zm145.93 -104.4c26.62,-17.72 53.58,-34.96 80.87,-51.73l198.07 0c1.36,17.31 2.93,34.55 4.75,51.73l-283.69 0zm170.54 -104.4c8.01,-4.5 16.05,-8.96 24.11,-13.38 3.53,4.66 7.31,9.12 11.3,13.38l-35.41 0zm267.48 678.54c7.77,17.38 15.8,34.62 24.07,51.72l-760.19 0c-6.7,-5.82 -13.38,-11.69 -20.03,-17.59 -12.13,-11.25 -24.14,-22.63 -36.04,-34.13l792.19 0zm50.6 104.4c9.1,17.39 18.45,34.64 28.07,51.72l-685.75 0c-22.39,-16.85 -44.47,-34.1 -66.23,-51.72l723.91 0zm58.86 104.4c10.57,17.43 21.4,34.67 32.5,51.72l-598.55 0c-26.27,-16.73 -52.16,-33.98 -77.68,-51.72l643.73 0zm68.06 104.41c12.21,17.46 24.71,34.7 37.49,51.71l-490.37 0c-31.95,-16.53 -63.44,-33.77 -94.48,-51.71l547.36 0zm78.52 104.4c14.12,17.5 28.52,34.74 43.24,51.72l-342.4 0c-41.83,-16.09 -83.04,-33.35 -123.6,-51.72l422.76 0zm67.17 104.4c-6.34,16.16 -10.23,33.55 -11.21,51.72l-1.46 0c-68.24,-14.34 -135.21,-31.63 -200.84,-51.72l213.51 0zm-1153.08 -887.35c1.45,-17.33 3.19,-34.57 5.21,-51.73l52.89 0c-19.31,16.98 -38.38,34.22 -57.2,51.73l-0.9 0zm12.35 -104.4c2.66,-17.34 5.62,-34.59 8.86,-51.73l163.06 0c-21.74,16.92 -43.22,34.17 -64.43,51.73l-107.49 0zm19.75 -104.4c3.9,-17.36 8.14,-34.6 12.63,-51.73l283.03 0c-24.82,16.84 -49.33,34.09 -73.54,51.73l-222.12 0zm27.42 -104.4c5.22,-17.38 10.78,-34.63 16.59,-51.73l418.02 0c-28.93,16.72 -57.53,33.97 -85.77,51.73l-348.84 0zm35.6 -104.41c6.63,-17.4 13.57,-34.64 20.82,-51.72l442 0c-3.47,13.4 -5.32,27.45 -5.32,41.94 0,3.28 0.1,6.54 0.29,9.78l-457.79 0zm44.35 -104.4c8.18,-17.42 16.68,-34.67 25.49,-51.72l474.23 0c-22.85,12.58 -42.43,30.35 -57.16,51.72l-442.56 0zm53.98 -104.41c9.89,-17.45 20.12,-34.7 30.67,-51.71l459.75 0c-2.43,17.16 -4.62,34.41 -6.58,51.71l-483.84 0zm64.82 -104.4c11.85,-17.49 24.06,-34.74 36.61,-51.71l406.71 0c-3.4,17.15 -6.58,34.4 -9.52,51.71l-433.8 0zm77.35 -104.4c14.2,-17.56 28.78,-34.79 43.72,-51.71l346.1 0c-4.43,17.14 -8.63,34.38 -12.59,51.71l-377.23 0zm92.48 -104.4c17.11,-17.65 34.64,-34.9 52.59,-51.72l274.96 0c-5.5,17.14 -10.76,34.37 -15.78,51.72l-311.77 0zm111.78 -104.4c21.06,-17.81 42.59,-35.05 64.6,-51.72l188.07 0c-6.63,17.12 -13.01,34.37 -19.14,51.72l-233.53 0zm138.6 -104.4c27.06,-18.09 54.74,-35.34 82.98,-51.72l75.11 0c-7.83,17.11 -15.41,34.35 -22.73,51.72l-135.36 0zm182.02 -104.4l1.53 -0.74 -0.37 0.74 -1.16 0z"/>
  <path class="fil2 str0" d="M12360.07 4232.5c-384.93,249.22 -820.41,394.01 -1336.49,394.01 -516.08,0 -1056.92,-229.5 -1462.61,-523.69 -23.4,-53.26 -43.97,-108.05 -61.36,-164.25 409.34,337.08 952.33,595.44 1523.97,595.44 685.01,0 1566.43,-306.04 1764.34,-1036l0.85 -0.45c-85.92,-22.53 -149.31,-100.7 -149.31,-193.69 0,-110.58 89.65,-200.23 200.23,-200.23 110.58,0 200.23,89.65 200.23,200.23 0,90.58 -60.15,167.1 -142.69,191.82 1.12,0.67 2.24,1.35 3.35,2.06 -84,324.9 -279.12,557.38 -540.51,734.75z"/>
  <circle class="fil4" cx="11303.73" cy="2270.01" r="78.56"/>
  <circle class="fil4" cx="11841.67" cy="2745.8" r="78.56"/>
  <circle class="fil4" cx="11023.23" cy="2756.46" r="78.56"/>
  <circle class="fil4" cx="10173.28" cy="2986.38" r="78.56"/>
  <circle class="fil4" cx="10764.91" cy="4356.64" r="78.56"/>
 </g>
</svg>
