<?xml version="1.0" encoding="UTF-8"?>
<!DOCTYPE svg PUBLIC "-//W3C//DTD SVG 1.1//EN" "http://www.w3.org/Graphics/SVG/1.1/DTD/svg11.dtd">
<!-- Creator: CorelDRAW -->
<svg xmlns="http://www.w3.org/2000/svg" xml:space="preserve" width="180.621mm" height="180.622mm" version="1.1" style="shape-rendering:geometricPrecision; text-rendering:geometricPrecision; image-rendering:optimizeQuality; fill-rule:evenodd; clip-rule:evenodd"
viewBox="0 0 10606.24 10606.31"
 xmlns:xlink="http://www.w3.org/1999/xlink"
 xmlns:xodm="http://www.corel.com/coreldraw/odm/2003">
 <defs>
  <style type="text/css">
   <![CDATA[
    .fil1 {fill:#CC9933}
    .fil0 {fill:white}
   ]]>
  </style>
 </defs>
 <g id="Layer_x0020_1">
  <metadata id="CorelCorpID_0Corel-Layer"/>
  <path class="fil0" d="M5303.12 0c325.68,0 644.4,29.43 953.71,85.73l-1907.42 0c309.31,-56.31 628.03,-85.73 953.71,-85.73zm1357.34 175.73c100.5,26.6 199.84,56.08 297.9,88.36l-3310.48 0c98.06,-32.27 197.4,-61.76 297.9,-88.36l2714.68 0zm549.6 178.36c72.25,27.93 143.74,57.39 214.42,88.36l-4242.73 0c70.68,-30.96 142.17,-60.43 214.42,-88.36l3813.89 0zm409.02 178.36c58.31,28.42 116.01,57.88 173.09,88.36l-4978.1 0c57.08,-30.48 114.78,-59.94 173.09,-88.36l4631.93 0zm334.72 178.36c49.48,28.69 98.46,58.13 146.91,88.36l-5595.2 0c48.45,-30.23 97.44,-59.67 146.91,-88.36l5301.38 0zm286.32 178.36c43.18,28.83 85.9,58.29 128.16,88.36l-6130.35 0c42.26,-30.07 84.99,-59.53 128.16,-88.36l5874.02 0zm250.91 178.36c38.35,28.95 76.31,58.39 113.82,88.36l-6603.49 0c37.51,-29.97 75.47,-59.41 113.82,-88.36l6375.85 0zm223.44 178.36c34.44,29.03 68.53,58.46 102.2,88.36l-2280.33 0 -48.68 -48.68 -48.69 48.68 -2274.19 0 -46.17 -46.17 -46.17 46.17 -2282.92 0c33.67,-29.89 67.76,-59.33 102.2,-88.36l6822.73 0zm201.12 178.36c31.16,29.08 61.96,58.53 92.41,88.36l-2293.3 0 -88.35 -88.36 2289.24 0zm-2655 88.36l-1917.44 0 -88.35 -88.36 2094.17 0 -88.37 88.36zm-2366.49 0l-2295.89 0c30.45,-29.82 61.25,-59.28 92.41,-88.36l2291.84 0 -88.36 88.36zm5203.65 90c28.39,29.13 56.45,58.57 84.15,88.36l-2288.84 0 -88.36 -88.36 2293.05 0zm-3015.56 88.36l-1560.69 0 -88.36 -88.36 1737.42 0 -88.38 88.36zm-2366.45 0l-2291.43 0c27.7,-29.79 55.76,-59.23 84.15,-88.36l2295.65 0 -88.36 88.36zm5547.96 90c25.95,29.17 51.62,58.6 76.91,88.36l-2269.2 0 -88.36 -88.36 2280.65 0zm-3359.9 88.36l-1203.94 0 -88.36 -88.36 1380.68 0 -88.38 88.36zm-2366.43 0l-2271.78 0c25.29,-29.76 50.96,-59.19 76.91,-88.36l2283.24 0 -88.36 88.36zm5877.93 90c23.76,29.21 47.29,58.63 70.42,88.36l-2235.96 0 -88.36 -88.36 2253.89 0zm-3689.89 88.36l-847.2 0 -88.36 -88.36 1023.92 0 -88.37 88.36zm-2366.39 0l-2238.55 0c23.14,-29.73 46.67,-59.14 70.42,-88.36l2256.48 0 -88.35 88.36zm6195.11 90c21.79,29.24 43.37,58.65 64.56,88.36l-2190.57 0 -88.36 -88.36 2214.37 0zm-4007.11 88.36l-490.45 0 -88.36 -88.36 667.18 0 -88.37 88.36zm-2366.36 0l-2193.16 0c21.19,-29.71 42.77,-59.11 64.56,-88.36l2216.96 0 -88.36 88.36zm6500.83 90c20,29.25 39.77,58.67 59.17,88.36l-2134.18 0 -88.36 -88.36 2163.37 0zm-4312.86 88.36l-133.71 0 -88.36 -88.36 310.43 0 -88.37 88.36zm-2366.33 0l-2136.77 0c19.4,-29.69 39.17,-59.11 59.17,-88.36l2165.96 0 -88.36 88.36zm6795.95 90c18.34,29.26 36.44,58.69 54.19,88.36l-2067.61 0 -88.36 -88.36 2101.78 0zm-6974.31 88.36l-2070.2 0c17.75,-29.67 35.84,-59.1 54.19,-88.36l2104.37 0 -88.35 88.36zm7081.23 90c16.79,29.27 33.32,58.72 49.53,88.36l-1991.52 0 -88.36 -88.36 2030.35 0zm-7259.59 88.36l-1994.11 0c16.21,-29.64 32.74,-59.09 49.53,-88.36l2032.94 0 -88.36 88.36zm7357.28 90c15.33,29.28 30.39,58.73 45.16,88.36l-2166.51 0 88.36 -88.36 2033 0zm-7270.15 88.36l-2174.56 0c14.76,-29.62 29.83,-59.07 45.16,-88.36l2041.05 0 88.36 88.36zm7359.16 90c13.94,29.3 27.6,58.76 41,88.36l-2429.72 0 88.35 -88.36 2300.36 0zm-7180.8 88.36l-2437.78 0c13.4,-29.6 27.06,-59.06 41,-88.36l2308.41 0 88.36 88.36zm7261.53 90c12.63,29.32 24.99,58.77 37.09,88.36l-2684.9 0 88.36 -88.36 2559.45 0zm-7083.17 88.36l-2692.96 0c12.1,-29.59 24.47,-59.04 37.09,-88.36l2567.5 0 88.36 88.36zm7156.15 90c11.4,29.33 22.55,58.77 33.41,88.36l-2932.55 0 88.36 -88.36 2810.78 0zm-6977.8 88.36l-2940.6 0c10.86,-29.58 22.01,-59.03 33.41,-88.36l2818.84 0 88.35 88.36zm7043.41 90c10.22,29.34 20.19,58.77 29.87,88.36l-3172.98 0 88.36 -88.36 3054.75 0zm-6865.05 88.36l-3181.03 0c9.68,-29.58 19.65,-59.02 29.87,-88.36l3062.8 0 88.36 88.36zm6923.55 90c9.07,29.34 17.93,58.78 26.45,88.36l-3406.41 0 88.36 -88.36 3291.6 0zm-6745.19 88.36l-3414.47 0c8.53,-29.58 17.38,-59.01 26.45,-88.36l3299.66 0 88.36 88.36zm6796.82 90c7.97,29.35 15.73,58.79 23.14,88.36l-3633.1 0 88.36 -88.36 3521.59 0zm-6618.45 88.36l-3641.15 0c7.42,-29.58 15.17,-59.01 23.14,-88.36l3529.65 0 88.36 88.36zm6663.41 90c6.89,29.35 13.59,58.79 19.92,88.36l-3587.82 0c-18.53,-29.77 -37.54,-59.22 -57.02,-88.36l3624.92 0zm-6759.01 88.36l-3587.28 0c6.33,-29.57 13.03,-59.01 19.92,-88.36l3624.23 0c-19.47,29.19 -38.43,58.65 -56.87,88.36zm6797.46 90c5.83,29.37 11.5,58.8 16.77,88.36l-3519.85 0c-15.94,-29.7 -32.36,-59.16 -49.26,-88.36l3552.34 0zm-6900.27 88.36l-3519.78 0c5.27,-29.57 10.94,-59 16.77,-88.36l3552.01 0c-16.82,29.21 -33.15,58.66 -49,88.36zm6932.36 90c4.8,29.37 9.46,58.8 13.69,88.36l-803.75 0 -88.36 -88.36 878.41 0zm-1112.02 88.36l-2334.44 0c-13.62,-29.68 -27.7,-59.13 -42.21,-88.36l2465.01 0 -88.36 88.36zm-5908.37 0l-2326.99 0 -88.36 -88.36 2457.2 0c-10.47,21.25 -20.71,42.61 -30.7,64.1 -3.75,8.07 -7.47,16.15 -11.16,24.26zm-2654.43 0l-806.33 0c4.23,-29.56 8.89,-58.99 13.69,-88.36l880.99 0 -88.36 88.36zm9700.68 90c3.79,29.38 7.45,58.8 10.67,88.36l-648.22 0 -88.36 -88.36 725.91 0zm-1316.23 88.36l-2080.62 0c-11.52,-29.67 -23.45,-59.12 -35.8,-88.36l2204.78 0 -88.36 88.36zm-5804.65 0l-2074.01 0 -88.35 -88.36 2197.73 0c-12.2,29.2 -23.99,58.66 -35.37,88.36zm-2758.15 0l-650.8 0c3.22,-29.55 6.88,-58.98 10.67,-88.36l728.49 0 -88.36 88.36zm9898.76 90c2.79,29.39 5.48,58.8 7.69,88.36l-486.61 0 -88.36 -88.36 567.27 0zm-1514.31 88.36l-1838.92 0c-9.58,-29.65 -19.57,-59.11 -29.94,-88.36l1957.21 0 -88.36 88.36zm-5688.77 0l-1833.17 0 -88.36 -88.36 1951.03 0c-10.22,29.22 -20.05,58.67 -29.51,88.36zm-2874.03 0l-489.19 0c2.21,-29.55 4.9,-58.97 7.69,-88.36l569.86 0 -88.36 88.36zm10090.8 90c1.8,29.39 3.53,58.81 4.76,88.36l-319 0 -88.36 -88.36 402.6 0zm-1706.35 88.36l-1608.33 0c-1.48,-5.63 -2.97,-11.26 -4.49,-16.89 -6.44,-23.95 -13.12,-47.77 -20.05,-71.46l1721.22 0 -88.35 88.36zm-5562.72 0l-1602.51 0 -88.36 -88.36 1715.88 0c-6.73,23.35 -13.22,46.84 -19.48,70.47l-0.68 -0.19c-1.64,6.02 -3.25,12.05 -4.85,18.07zm-3000.08 0l-321.59 0c1.23,-29.55 2.96,-58.97 4.76,-88.36l405.19 0 -88.36 88.36zm10276.86 90c0.82,29.4 1.6,58.81 1.85,88.36l-145.44 0 -88.36 -88.36 231.95 0zm-1892.42 88.36l-1388.19 0c-6.05,-29.48 -12.52,-58.94 -19.41,-88.36l1495.95 0 -88.36 88.36zm-5426.4 0l-1382.11 0 -88.35 -88.36 1489.97 0c-6.93,29.43 -13.44,58.88 -19.51,88.36zm-3136.4 0l-148.03 0c0.25,-29.54 1.03,-58.96 1.85,-88.36l234.54 0 -88.36 88.36zm10457.45 90c-0.15,18.39 -0.4,36.74 -0.74,55.08l-55.08 -55.08 55.82 0zm-2073.01 88.36l-1178.32 0c-4.37,-29.48 -9.15,-58.94 -14.34,-88.36l1281.02 0 -88.36 88.36zm-5279.53 0l-1172.27 0 -88.36 -88.36 1274.91 0c-5.18,29.42 -9.94,58.87 -14.29,88.36zm-3252.54 -30.73c-0.36,-19.18 -0.63,-38.39 -0.79,-57.62l58.42 0 -57.62 57.62zm8353.71 209.09l-978.57 0c-2.71,-29.48 -5.83,-58.94 -9.35,-88.36l1076.27 0 -88.35 88.36zm-5122.29 0l-972.79 0 -88.36 -88.36 1070.32 0c-3.48,29.41 -6.53,58.87 -9.18,88.36zm4943.94 178.36l-788.82 0c-1.06,-29.48 -2.53,-58.94 -4.4,-88.36l881.57 0 -88.36 88.36zm-4954.9 0l-783.47 0 -88.36 -88.36 876 0c-1.8,29.41 -3.19,58.86 -4.18,88.36zm4776.54 178.36l-608.93 0c0.43,-22.41 0.63,-44.83 0.59,-67.28 -0.01,-7.03 -0.06,-14.06 -0.12,-21.08l696.82 0 -88.36 88.36zm-4777.34 0l-604.31 0 -88.36 -88.36 691.77 0c-0.12,29.45 0.17,58.9 0.89,88.36zm4598.99 178.36l-439 0c2.21,-29.43 4.03,-58.88 5.43,-88.36l521.93 0 -88.36 88.36zm-4589.48 0l-435.46 0 -88.36 -88.36 517.82 0c1.58,29.45 3.58,58.9 6,88.36zm4411.11 178.36l-279.12 0c3.89,-29.43 7.36,-58.89 10.42,-88.36l357.06 0 -88.36 88.36zm-4391.41 0l-276.8 0 -88.36 -88.36 354.14 0c3.26,29.44 6.93,58.89 11.03,88.36zm4213.05 178.36l-129.42 0c5.57,-29.43 10.73,-58.89 15.47,-88.36l202.31 0 -88.36 88.36zm-4185.15 0l-126.36 0 -88.36 -88.36 200.58 0c4.39,26.26 9.1,52.54 14.14,78.84l0 9.52zm7169.34 90c-7.42,29.55 -15.07,59.01 -22.99,88.36l-102.29 0 88.36 -88.36 36.92 0zm-10165.14 88.36l-99.81 0c-7.92,-29.35 -15.57,-58.81 -22.99,-88.36l34.43 0 88.36 88.36zm2959.44 -88.36l55.03 0 7.47 29.88 0 11.56 9.4 30.46 -71.9 -71.9zm4073.74 0l57.78 0 -75.1 75.1c6.08,-25.02 11.85,-50.05 17.32,-75.1zm3083.85 178.36c-8.53,29.56 -17.31,59.01 -26.34,88.36l-229.19 0 88.36 -88.36 167.18 0zm-9938.68 88.36l-226.71 0c-9.03,-29.34 -17.82,-58.8 -26.34,-88.36l164.69 0 88.36 88.36zm9883.73 90c-9.68,29.57 -19.61,59.02 -29.8,88.36l-349.15 0 88.36 -88.36 290.59 0zm-9705.38 88.36l-346.67 0c-10.19,-29.34 -20.11,-58.79 -29.8,-88.36l288.1 0 88.36 88.36zm9643.41 90c-10.88,29.57 -22,59.03 -33.39,88.36l-461.95 0 88.36 -88.36 406.98 0zm-9465.06 88.36l-459.47 0c-11.39,-29.33 -22.51,-58.79 -33.39,-88.36l404.5 0 88.36 88.36zm9395.77 90c-12.11,29.59 -24.49,59.04 -37.13,88.36l-567.27 0 88.36 -88.36 516.05 0zm-9217.41 88.36l-564.79 0c-12.64,-29.31 -25.02,-58.77 -37.13,-88.36l513.56 0 88.36 88.36zm9140.49 90c-13.41,29.6 -27.08,59.06 -41.02,88.36l-664.83 0 88.36 -88.36 617.49 0zm-8962.13 88.36l-662.34 0c-13.94,-29.3 -27.6,-58.76 -41.02,-88.36l615 0 88.36 88.36zm8877.22 90c-14.78,29.61 -29.8,59.07 -45.12,88.36l-754.17 0 88.36 -88.36 710.93 0zm-8698.87 88.36l-751.69 0c-15.31,-29.28 -30.34,-58.75 -45.12,-88.36l708.44 0 88.36 88.36zm8605.56 90c-16.22,29.62 -32.68,59.09 -49.45,88.36l-834.88 0 88.36 -88.36 795.97 0zm-8427.2 88.36l-832.39 0c-16.77,-29.27 -33.24,-58.74 -49.45,-88.36l793.49 0 88.36 88.36zm8325.01 90c-17.75,29.64 -35.77,59.1 -54.09,88.36l-906.41 0 88.36 -88.36 872.14 0zm-8146.65 88.36l-903.92 0c-18.32,-29.25 -36.34,-58.72 -54.09,-88.36l869.65 0 88.36 88.36zm8034.95 90c-19.4,29.66 -39.07,59.12 -59.06,88.36l-970.6 0c26.78,-25.1 53.23,-50.71 79.34,-76.82l11.53 -11.53 938.79 0zm-7854.18 88.36l-968.01 0c-19.99,-29.24 -39.66,-58.7 -59.06,-88.36l936.31 0 14.07 14.07c25.23,25.23 50.79,49.99 76.7,74.29zm7732.25 90c-21.19,29.68 -42.67,59.14 -64.46,88.36l-1049.83 0c36.07,-28.64 71.61,-58.09 106.61,-88.36l1007.68 0zm-7525.49 88.36l-1047.44 0c-21.79,-29.22 -43.28,-58.67 -64.46,-88.36l1005.12 0c35.02,30.25 70.61,59.7 106.78,88.36zm7392.42 90c-23.15,29.71 -46.6,59.17 -70.37,88.36l-1158.52 0c43.63,-28.4 86.58,-57.85 128.83,-88.36l1100.05 0zm-7144.02 88.36l-1156.86 0c-23.76,-29.19 -47.22,-58.65 -70.37,-88.36l1097.99 0c42.34,30.47 85.41,59.92 129.23,88.36zm6998.73 90c-25.31,29.74 -50.95,59.2 -76.9,88.36l-1317.13 0c55.42,-27.85 110.01,-57.31 163.78,-88.36l1230.25 0zm-6687.36 88.36l-1316.41 0c-25.95,-29.17 -51.59,-58.63 -76.9,-88.36l1229.05 0c53.95,31.09 108.7,60.54 164.27,88.36zm6528.54 90c-27.73,29.78 -55.79,59.24 -84.19,88.36l-1581.04 0c79.77,-26.57 158.05,-56.03 234.85,-88.36l1430.39 0zm-3734.35 88.36l-292.11 0 162.22 -46.45c42.83,16.35 86.13,31.83 129.89,46.45zm-2361.72 0l-1582.78 0c-28.4,-29.13 -56.47,-58.59 -84.19,-88.36l1430.48 0c77.36,32.41 156.2,61.87 236.49,88.36zm5922.04 90c-30.48,29.82 -61.32,59.28 -92.52,88.36l-7229.94 0c-31.2,-29.08 -62.04,-58.53 -92.52,-88.36l1821.07 0c234.37,51.77 469.91,77.47 706.61,77.07 234.85,-0.39 467.4,-26.09 697.65,-77.07l951.54 0c236.97,53.58 475.56,80.15 715.77,79.71 238.04,-0.44 474,-27.02 707.85,-79.71l1814.48 0zm-191.51 178.36c-33.69,29.88 -67.76,59.34 -102.23,88.36l-6827.51 0c-34.46,-29.01 -68.53,-58.47 -102.23,-88.36l7031.96 0zm-211.99 178.36c-37.53,29.96 -75.49,59.42 -113.86,88.36l-6380.26 0c-38.37,-28.94 -76.33,-58.4 -113.86,-88.36l6607.98 0zm-236.75 178.36c-42.31,30.07 -85.08,59.53 -128.31,88.36l-5877.87 0c-43.22,-28.83 -86,-58.29 -128.31,-88.36l6134.48 0zm-267.86 178.36c-48.53,30.22 -97.58,59.68 -147.14,88.36l-5304.48 0c-49.56,-28.68 -98.62,-58.13 -147.14,-88.36l5598.76 0zm-309.13 178.36c-57.14,30.47 -114.88,59.96 -173.24,88.36l-4634.01 0c-58.37,-28.4 -116.1,-57.89 -173.24,-88.36l4980.5 0zm-368.16 178.36c-70.65,30.95 -142.08,60.49 -214.33,88.36l-3815.54 0c-72.25,-27.87 -143.67,-57.41 -214.33,-88.36l4244.19 0zm-466.35 178.36c-98.09,32.28 -197.44,61.8 -297.99,88.36l-2715.5 0c-100.55,-26.56 -199.9,-56.08 -297.99,-88.36l3311.49 0zm-701.89 178.36c-309.41,56.29 -628.19,85.73 -953.85,85.73 -325.66,0 -644.44,-29.44 -953.85,-85.73l1907.7 0z"/>
  <path class="fil0" d="M5303.12 0c2928.83,0 5303.12,2374.31 5303.12,5303.15 0,33.35 -0.65,66.54 -1.26,99.75l-372.7 -372.7c-141.68,-2599.55 -2294.26,-4663.87 -4929.16,-4663.87 -2635.84,0 -4789.04,2065.78 -4929.34,4666.64l-372.49 372.49c-0.65,-34.05 -1.29,-68.1 -1.29,-102.31 0,-2928.85 2374.29,-5303.15 5303.12,-5303.15zm5155.83 6547.89c-560.02,2328.25 -2655.74,4058.42 -5155.83,4058.42 -2498.91,0 -4593.76,-1728.56 -5155.03,-4055.13l559.76 559.77c721.38,1832.25 2506.87,3129.03 4595.27,3129.03 2089.91,0 3876.43,-1298.68 4596.79,-3133.04l559.04 -559.05z"/>
  <path class="fil1" d="M4921.25 8705.41c-15.33,4.39 -30.72,8.67 -46.17,12.84 -500.84,134.63 -1002.47,135.41 -1504.88,2.54 -502.6,-132.87 -938.67,-384.37 -1308.21,-753.91l-2061.92 -2061.95 1025.69 -1025.71 2061.93 2061.95c149.89,149.75 316.48,259.82 499.77,329.95 38.21,81.05 79.83,160.36 124.88,237.93 140.65,242.21 312.62,465.01 515.96,668.34l1.15 0c202.88,202.78 423.78,373.24 662.7,511.41 9.67,5.59 19.38,11.13 29.1,16.61z"/>
  <path class="fil1" d="M6180.56 3848.24c369.54,369.54 621.81,804.64 756.44,1305.5 134.62,500.85 135.6,1000.73 2.73,1499.83 -35.21,131.9 -78.64,259.3 -130.3,382.2 -98.2,25.73 -202.55,38.37 -313.01,37.89 -161.28,-0.7 -310.95,-29.93 -448.9,-87.68 -135.43,-56.68 -261.5,-143.36 -378.15,-260.02l-0.56 0.56 -20.29 -20.75 0.05 -0.05 -3.71 -3.95 -2.02 -2.94 -0.38 0.38 -6.57 -6.96 -5.92 -7.08 -0.38 0.38 -0.13 -0.14 -0.46 0.43 -0.4 -0.43 0.15 -0.14 -6.05 -6.83 -3.44 -3.44 -5.91 -6.47 0.62 -0.56 -6.05 -6.64 -0.12 0.11 -3 -3.8 -0.14 0.14c-7.94,-9.25 -15.67,-18.86 -23.46,-28.27l-0.29 0.24 -13.89 -17.26 0.06 -0.05 -16.18 -21.36c-3.78,-3.83 -7.77,-10.02 -11.12,-14.44l-1.87 -1.9 -0.69 -0.92 0.31 -0.21 -0.39 -0.58 -1.15 -1.15 -4.68 -6.83 -3.71 -4.45 0.73 -0.48 -0.39 -0.58 -2.3 -2.3 -9.75 -14.25 -0.19 0.14 -2.5 -4.16 -4.68 -6.63 -0.25 0.18 -2.91 -4.5 0.29 -0.18 -19.48 -30.42 0.26 -0.16 -0.59 -0.97 -1.13 -1.13 -0.7 -1.1 -0.37 -0.36 -0.64 -1.02 -0.19 0.12 -0.36 -0.58 0.45 -0.26 -13.46 -22.83 -0.85 -1.69c74.98,-175.06 112.93,-365.09 113.77,-570.16 0.92,-212.25 -37.86,-407.99 -116.27,-587.16l4.83 -11.19 -74.7 -127.88c-19.06,-32.64 -41.02,-66.3 -65.84,-101 -43.74,-62.05 -93.17,-121.71 -148.28,-178.99l-7.23 -7.49 -2.7 -2.77c-3.79,-3.88 -7.6,-7.74 -11.44,-11.58l-207.95 -208.37 -0.21 0.21 -887.16 -887.16 -967.19 -967.19 1020.43 -1020.44 2061.92 2061.95z"/>
  <path class="fil0" d="M5509.38 2761.88l978.28 -978.12 1025.69 1025.71 -982.75 982.76c-45.64,-51.71 -93.12,-102.23 -142.46,-151.57l-878.77 -878.78z"/>
  <path class="fil0" d="M8544.32 7964.34c-369.54,369.54 -804.64,621.82 -1305.48,756.45 -500.84,134.63 -1000.72,135.6 -1499.81,2.73 -499.09,-133.07 -933.4,-384.18 -1303.14,-753.72 -373.05,-373.05 -626.69,-810.11 -761.52,-1310.96l-0.78 -3.12 -0.78 -3.12 -0.97 -2.92 -0.78 -3.12 -0.78 -3.12 -0.78 -3.12 -0.78 -3.12 -0.59 -1.76 -0.39 -1.17 -0.78 -3.12 -0.78 -3.12 -0.78 -3.12 -0.78 -3.12 -0.78 -2.92 -0.78 -3.12 -0.78 -3.12 -0.19 -0.78 -0.58 -2.34 -0.78 -3.12 -0.78 -3.12 -0.78 -2.93 -0.78 -3.12 -0.59 -3.12 -0.78 -3.12 -0.78 -2.53 0 -0.59 -0.78 -2.93 -0.78 -3.12 -0.78 -3.12 -0.59 -3.12 -0.78 -3.12 -0.78 -3.12 -0.78 -2.92 -0.19 -1.37 -0.39 -1.76 -0.78 -3.12 -0.78 -3.12 -0.59 -3.12 -0.78 -2.92 -0.78 -3.12 -0.58 -3.12 -0.78 -3.12 0 -0.19 -0.59 -2.93 -0.78 -3.12 -0.59 -2.93 -0.78 -3.12 -0.59 -3.12 -0.78 -3.12 -0.59 -3.12 -0.58 -1.95 -0.2 -0.98 -0.58 -3.12 -0.78 -3.12 -0.59 -3.12 -0.59 -3.12 -0.78 -3.12 -0.58 -2.92 -0.97 -3.9 -0.39 -2.34 -0.58 -3.12 -1.37 -6.05 -0.59 -3.12 -0.58 -3.12 -1.37 -5.85 0 -0.39 -0.59 -2.92 -0.58 -3.12 -0.59 -3.12c-88.19,-436.86 -75.9,-867.86 43.51,-1307.45 89.69,-339.29 233.49,-648.37 431.25,-927.13l849.46 849.47 0.58 -0.58c76.34,76.48 139.54,157.61 189.62,243.33 -76.58,177.45 -114.38,371.15 -113.53,581.01 0.78,201.75 37.46,388.86 109.85,561.34l3.32 8 2.92 6.83 0.59 1.17 3.51 8 3.12 6.83 0.39 1.17 3.71 8 3.12 6.83 0.59 1.17 3.71 7.8 3.12 6.83 0.58 1.17 3.9 7.8 3.32 6.83 0.58 0.97 3.9 8 3.32 6.64 0.59 1.17 4.09 7.8 3.51 6.63 0.59 0.97 4.1 7.81 3.71 6.82 0.39 0.98 4.29 7.6 3.71 6.83 0.59 0.98 4.29 7.6 3.9 6.64 0.59 0.97 4.49 7.61 3.9 6.83 0.59 0.78 4.49 7.61 4.1 6.64 0.59 0.97 4.68 7.41 4.1 6.83 0.59 0.78 4.68 7.42 4.29 6.83 0.59 0.58 4.87 7.61 4.29 6.64 0.59 0.78 4.88 7.42 4.68 6.63 0.39 0.59 5.07 7.42 4.68 6.83 0.39 0.58 5.27 7.22 4.68 6.83 0.39 0.58 5.27 7.22 5.07 6.83 0.39 0.39 5.27 7.22 5.07 6.83 0.39 0.39 5.47 7.22 5.27 6.83 0.39 0.39 5.47 7.22 5.27 6.64 0.39 0.39 5.66 7.22 5.46 6.63 0.39 0.39 5.65 7.02 5.66 6.83 0.19 0.39 6.05 7.03 5.66 6.63 0.19 0.19 6.05 7.03 5.85 6.83 0.19 0.19 6.05 7.02 6.05 6.64 0.19 0.19 6.24 6.83 6.05 6.83 0.2 0.19 6.24 6.83 6.24 6.64 0.19 0.19 6.44 6.83 6.24 6.64 0.19 0.19 6.44 6.64 6.64 6.83 13.27 13.46c286.62,286.62 631.18,430.81 1033.5,432.57 402.31,1.76 745.32,-139.12 1028.62,-422.23l2061.92 -2061.95 1020.43 1020.44 -2061.93 2061.95z"/>
 </g>
</svg>
