<?xml version="1.0" encoding="UTF-8"?>
<!DOCTYPE svg PUBLIC "-//W3C//DTD SVG 1.1//EN" "http://www.w3.org/Graphics/SVG/1.1/DTD/svg11.dtd">
<!-- Creator: CorelDRAW -->
<svg xmlns="http://www.w3.org/2000/svg" xml:space="preserve" width="180.621mm" height="180.621mm" version="1.1" style="shape-rendering:geometricPrecision; text-rendering:geometricPrecision; image-rendering:optimizeQuality; fill-rule:evenodd; clip-rule:evenodd"
viewBox="0 0 18062 18062"
 xmlns:xlink="http://www.w3.org/1999/xlink"
 xmlns:xodm="http://www.corel.com/coreldraw/odm/2003">
 <defs>
  <style type="text/css">
   <![CDATA[
    .str0 {stroke:white;stroke-width:20;stroke-miterlimit:22.9256}
    .fil0 {fill:#CC9933}
    .fil1 {fill:white}
   ]]>
  </style>
 </defs>
 <g id="Layer_x0020_1">
  <metadata id="CorelCorpID_0Corel-Layer"/>
  <path class="fil0" d="M18062 9042.36c0,1620.66 -401.38,3127.72 -1204.13,4521.18 -802.75,1393.46 -1897.08,2491.56 -3282.97,3294.32 -1385.89,802.75 -2889.16,1204.14 -4509.82,1204.14 -1635.8,0 -3150.44,-401.39 -4543.9,-1204.14 -1393.46,-802.75 -2495.35,-1900.86 -3305.68,-3294.32 -810.33,-1393.46 -1215.5,-2900.52 -1215.5,-4521.18l0 -9042.36 4498.46 0 0 9042.36c0,1242 443.04,2302.23 1329.09,3180.73 886.06,878.48 1957.67,1317.73 3214.81,1317.73 1257.14,0 2328.74,-439.25 3214.81,-1317.73 317.46,-314.75 578.03,-652.83 781.74,-1014.22 349.56,-247.48 658.54,-533.58 914.43,-870.03 233.51,-307.03 419.92,-651.55 549.35,-1041.4 530.88,-397.18 598.07,-1198.26 122.99,-1673.34 -200.81,-200.81 -478.22,-325.04 -784.55,-325.04 -87.7,0 -173.03,10.19 -254.87,29.44l0 -7328.49 4475.74 0 0 9042.36z"/>
  <path class="fil1" d="M5098.5 895.25c1224.4,-596.79 2535.23,-895.24 3932.53,-895.24 1409.21,0 2727.64,303.53 3955.31,910.51l0 5923.03c-200.2,-354.44 -454.58,-685.99 -763.2,-994.61 -878.49,-878.49 -1942.52,-1317.74 -3192.11,-1317.74 -1249.57,0 -2313.6,439.25 -3192.09,1317.74 -297.04,297.04 -543.84,615.32 -740.45,954.78l0 -5898.47z"/>
  <path class="fil1" d="M9092.79 5110.17c340.6,0 670.95,43.63 985.92,125.48l-1143.32 0c-107.52,-35.6 -216.72,-67.54 -327.43,-95.67 158.85,-19.67 320.64,-29.81 484.83,-29.81zm1109.55 259.57c-20.43,19.73 -40.73,39.6 -60.84,59.67 -38,-26.4 -80.56,-46.75 -126.2,-59.67l187.04 0zm-418.76 0c-81.13,22.95 -152.42,69.4 -206,131.52 -93.46,-46.83 -188.66,-90.7 -285.44,-131.52l491.44 0zm714.11 0.46c102.73,39.58 203.37,83.37 301.7,131.17l-442.35 0c46.16,-44.48 93.08,-88.19 140.65,-131.17zm553.65 265.25c71.86,41.69 142.27,85.58 211.14,131.63l-938.22 0c-1.23,-46.09 -9.81,-90.34 -24.6,-131.63l751.69 0zm399.45 265.71c56,42.42 110.87,86.31 164.46,131.63l-1202.48 0c-39.62,-31.34 -79.72,-62.07 -120.33,-92.17 5.3,-12.86 10,-26.02 14.05,-39.46l1144.3 0zm315.06 265.71c45.67,42.82 90.32,86.69 133.89,131.63l-1178.56 0c-47.86,-44.84 -96.63,-88.73 -146.26,-131.63l1190.93 0zm257.98 265.71c38.02,43.07 75.14,86.93 111.27,131.63l-1151.36 0c-40.86,-44.66 -82.55,-88.54 -125.05,-131.63l1165.14 0zm214.91 265.71c31.94,43.21 63.05,87.08 93.24,131.63l-670.53 0c-20.63,-49.29 -50.27,-93.82 -86.87,-131.63l664.16 0zm180.15 265.72c26.86,43.32 52.91,87.19 78.08,131.62l-698.07 0c-36.77,-10.38 -73.67,-20.45 -110.69,-30.25 3.95,-23.25 6.03,-47.15 6.03,-71.53 0,-10.04 -0.36,-19.99 -1.05,-29.84l725.7 0zm150.69 265.71c22.4,43.4 44.05,87.27 64.84,131.62l-69.4 0c-112.98,-46.81 -227.48,-90.72 -343.37,-131.62l347.93 0zm226.13 531.42c14.81,43.54 28.88,87.43 42.18,131.64l-989 0c-19.35,-44.23 -39.32,-88.12 -59.93,-131.64l1006.75 0zm-1072.83 -134.09c-22.67,-44.27 -46.02,-88.16 -70,-131.62l708.99 0c105.65,41.31 209.99,85.22 312.99,131.62l-951.97 0zm-146.8 -265.71c-9.29,-15.63 -18.66,-31.21 -28.11,-46.73 21.97,-19.1 41.96,-40.42 59.63,-63.63 127.78,33.16 254.08,69.98 378.8,110.36l-410.32 0zm1299.53 665.51c11.43,43.59 22.09,87.47 32.02,131.65l-951.86 0c-16.26,-44.2 -33.15,-88.08 -50.66,-131.65l970.5 0zm59.73 265.71c8.2,43.63 15.7,87.52 22.45,131.65l-912.94 0c-13.38,-44.15 -27.38,-88.04 -41.99,-131.65l932.48 0zm40.6 265.71c5.14,43.67 9.57,87.56 13.26,131.65l-872.04 0c-10.66,-44.11 -21.93,-88 -33.78,-131.65l892.56 0zm22.21 265.71c2.15,43.25 3.59,86.67 4.31,130.26l-829.26 0c-7.98,-43.63 -16.57,-87.05 -25.7,-130.26l850.65 0zm4.27 265.73c-0.77,43.61 -2.24,87.04 -4.41,130.26l-783.85 0c-5.48,-43.61 -11.56,-87.03 -18.17,-130.26l806.43 0zm-13.46 264.32c-3.73,44.09 -8.2,87.98 -13.38,131.65l-735.39 0c-3.08,-44.05 -6.81,-87.92 -11.08,-131.65l759.84 0zm-78.71 265.72c-29.64,44.95 -60.37,88.84 -92.13,131.64l-566.47 0c-0.7,-44.03 -1.99,-87.92 -3.86,-131.64l662.46 0zm-197.78 265.71c-37.79,45.17 -76.78,89.06 -116.94,131.64l-346.82 0c1.65,-43.72 2.76,-87.61 3.27,-131.64l460.49 0zm-251.53 265.71c-48.62,45.52 -98.64,89.39 -149.98,131.64l-79.64 0c4.05,-43.7 7.54,-87.59 10.44,-131.64l219.18 0zm-328.3 1328.56c-36.21,44.7 -73.39,88.59 -111.47,131.63l-107.57 0c15.07,-38.07 29.68,-76.35 43.81,-114.88l35.24 -16.75 139.99 0zm-235.84 265.71c-22.84,23.5 -45.97,46.73 -69.4,69.65 10.41,-23.12 20.65,-46.33 30.73,-69.65l38.67 0zm-1332.88 397.34c-127.98,-33.03 -253.84,-71.37 -377.31,-114.8 36.8,-5.28 73.51,-10.9 110.11,-16.83l1217.45 0c-23.62,44.32 -47.94,88.21 -72.95,131.63l-877.3 0zm356.73 -265.71c144.52,-38.91 286.99,-82.84 427.2,-131.63l297.23 0c-20.07,44.26 -40.81,88.12 -62.21,131.63l-662.22 0zm778.06 -265.71l5.6 -2.34 -0.96 2.34 -4.64 0zm-2747.43 -531.42c-2.49,-46.23 -12.37,-90.5 -28.49,-131.63l2140.55 0c-159.94,52.13 -323.56,95.86 -489.29,131.63l-1622.77 0zm-112.8 -265.71c-53.12,-57.21 -121.79,-99.79 -199.32,-120.95l-1.75 -10.68 3064.2 0c-91.12,47.33 -184.44,91.16 -279.59,131.63l-2583.54 0zm-221.38 -265.72c-6.13,-43.72 -11.75,-87.59 -16.91,-131.62l3420.57 0c-3.66,29.04 -7.59,58.01 -11.8,86.89 -23.36,15.17 -46.92,30.08 -70.65,44.73l-3321.21 0zm-31.07 -265.71c-4.11,-43.74 -7.76,-87.61 -10.9,-131.64l3471.47 0c-3,44.05 -6.65,87.94 -10.88,131.64l-3449.69 0zm-18.99 -265.71c-2.13,-43.77 -3.78,-87.63 -4.95,-131.64l3495.17 0c-0.53,44.03 -1.65,87.92 -3.41,131.64l-3486.81 0zm-6.97 -265.71l-0.04 -21.72c0,-36.72 0.34,-73.37 1.03,-109.92l3491.81 0c1.95,43.72 3.32,87.61 4.05,131.64l-3496.85 0zm4.98 -265.71c1.79,-44.01 4.09,-87.88 6.85,-131.65l3461.52 0c4.45,43.71 8.32,87.58 11.55,131.65l-3479.92 0zm16.87 -265.71c3.74,-43.57 8,-86.99 12.69,-130.26l3404.21 0c6.93,43.21 13.26,86.63 18.98,130.26l-3435.88 0zm28.95 -265.73c5.75,-43.57 12.01,-86.99 18.7,-130.26l3318.67 0c9.53,43.21 18.48,86.63 26.8,130.26l-3364.17 0zm41.07 -264.32c7.88,-44.05 16.24,-87.94 25.09,-131.65l3204.17 0c12.39,43.63 24.16,87.52 35.3,131.65l-3264.56 0zm53.88 -265.71c10.02,-44.07 20.5,-87.94 31.5,-131.65l3059.61 0c15.29,43.59 29.96,87.48 43.97,131.65l-3135.08 0zm66.95 -265.71c12.21,-44.09 24.92,-87.98 38.14,-131.65l2883.53 0c18.36,43.55 36.07,87.43 53.14,131.65l-2974.81 0zm80.48 -265.72c14.51,-44.11 29.56,-87.99 45.08,-131.64l2674.01 0c21.69,43.5 42.7,87.37 63.04,131.64l-2782.13 0zm94.61 -265.73c16.92,-44.13 34.38,-88.02 52.33,-131.62l2428.72 0c25.29,43.42 49.91,87.31 73.83,131.62l-2554.88 0zm483.16 -265.71c46.97,-35.3 86.39,-80.14 115.38,-131.62l1369.39 0c35.97,53.82 83.91,98.96 140.01,131.62l-1624.78 0zm163.36 -265.71c3.01,-17.01 4.98,-34.36 5.89,-52.01 104.3,-4.79 209.14,-7.55 314.63,-7.55 303.54,0 602.2,20.55 895.04,59.56l-1215.56 0zm-1161.03 3592.96c-56.14,12.64 -108.07,36.4 -153.37,68.8 -22.28,-24.68 -44.31,-49.61 -66.07,-74.8l218.5 0 0.94 6zm-331.12 -140.09c-34.68,-43.24 -68.59,-87.13 -101.72,-131.62l395.95 0c4.97,44.01 10.41,87.9 16.32,131.62l-310.55 0zm-197.88 -265.71c-29.97,-43.34 -59.16,-87.23 -87.66,-131.64l555.59 0c3.04,44.01 6.54,87.9 10.51,131.64l-478.44 0zm-170.54 -265.71c-25.83,-43.42 -50.96,-87.33 -75.4,-131.64l701.33 0c1.11,44.01 2.7,87.87 4.76,131.64l-630.69 0zm-146.52 -265.71c-22.14,-43.48 -43.66,-87.37 -64.46,-131.64l835.93 0c-0.66,36.55 -1,73.18 -1,109.9l0.04 21.74 -770.51 0zm-124.89 -265.71c-18.8,-43.55 -36.96,-87.43 -54.45,-131.65l961.29 0c-2.68,43.77 -4.91,87.64 -6.65,131.65l-900.19 0zm-105.11 -265.71c-15.54,-43.12 -30.43,-86.55 -44.72,-130.26l1078.62 0c-4.54,43.27 -8.65,86.71 -12.28,130.26l-1021.62 0zm-86.71 -265.73c-12.66,-43.17 -24.69,-86.59 -36.11,-130.26l1190.51 0c-6.47,43.27 -12.51,86.69 -18.06,130.26l-1136.34 0zm-69.04 -264.32c-10.03,-43.65 -19.44,-87.52 -28.23,-131.65l1297.49 0c-8.56,43.71 -16.6,87.6 -24.22,131.65l-1245.04 0zm-52.89 -265.71c-7.38,-43.69 -14.13,-87.58 -20.28,-131.65l1400.63 0c-10.6,43.69 -20.74,87.58 -30.39,131.65l-1349.96 0zm-36.96 -265.71c-4.8,-43.71 -8.99,-87.6 -12.58,-131.65l1500.86 0c-12.73,43.69 -25.01,87.58 -36.77,131.65l-1451.51 0zm226.25 -265.72c35.63,-38 64.37,-82.53 84.2,-131.64l1262.02 0c-14.95,43.67 -29.42,87.53 -43.4,131.64l-1302.82 0zm114.22 -265.73c0.48,-8.24 0.73,-16.52 0.73,-24.88 0,-33.31 -3.85,-65.72 -11.11,-96.81l25.29 -9.93 1315.13 0c-17.27,43.62 -34.06,87.51 -50.34,131.62l-1279.7 0zm390.89 -265.71c152.4,-49.25 307.16,-93.2 464.1,-131.62l498.31 0c15.56,27.62 34.14,53.36 55.28,76.71 -7.96,18.26 -15.8,36.55 -23.58,54.91l-994.1 0zm-492.07 -35.18c-33.21,-38.83 -73.29,-71.62 -118.36,-96.44l375.13 0c-86.37,30.48 -171.99,62.65 -256.77,96.44zm-234.94 -230.53c5.2,-44.07 11.08,-87.94 17.51,-131.62l1451.33 0c-187.47,36.45 -372.27,80.42 -554.03,131.62l-914.81 0zm39.26 -265.71c7.81,-44.09 16.28,-87.98 25.35,-131.63l1719.35 0c-42.6,36.42 -77.94,81.13 -103.5,131.63l-1641.2 0zm55.25 -265.71c10.54,-44.13 21.7,-88 33.51,-131.63l2085.58 0c-28.17,43.49 -55.8,87.38 -82.86,131.63l-2036.23 0zm71.92 -265.71c13.38,-44.15 27.38,-88.04 42.03,-131.63l2187.42 0c-31.51,43.45 -62.48,87.34 -92.87,131.63l-2136.58 0zm89.43 -265.71c16.38,-44.19 33.41,-88.08 51.1,-131.63l2069.44 0c14.43,47.98 37.12,92.43 66.4,131.63l-2186.94 0zm108.01 -265.71c19.61,-44.26 39.86,-88.12 60.79,-131.63l1867.91 0c26.44,12.59 52.76,25.45 78.93,38.53 -7.57,29.9 -11.99,61.06 -12.85,93.1l-1994.78 0zm128.04 -265.71c22.22,-42.6 45.1,-84.82 68.59,-126.63l12.92 -5 1020.96 0c131.87,38.29 261.3,82.26 388.03,131.63l-1490.5 0zm2147.32 677.15c45.04,16.24 93.58,25.13 144.22,25.13 61.66,0 120.24,-13.14 173.12,-36.78l195.74 0c54.69,42.68 108.42,86.59 161.11,131.63l-763.05 0c29.14,-40.38 58.76,-80.36 88.87,-119.98zm824.31 254.06c46.06,42.96 91.28,86.85 135.57,131.63l-1229.72 0c28.43,-44.29 57.43,-88.16 87.01,-131.63l1007.14 0zm263.03 265.71c21.88,23.96 43.54,48.14 64.92,72.55 -11.6,18.76 -21.8,38.51 -30.41,59.08l-1321.81 0c-25.53,-50.5 -60.86,-95.19 -103.5,-131.63l1390.8 0zm-50.08 5844.26c-99.28,48.02 -200.92,91.97 -304.68,131.62l-1137.23 0c-25.27,-43.52 -49.98,-87.39 -74.14,-131.62l1516.05 0zm-1587.08 -134.09c-22.37,-43.56 -44.19,-87.43 -65.49,-131.62l1180.94 0c178.41,54.14 361.18,98.21 547.68,131.62l-1663.13 0zm-128.02 -265.71c-8.26,-18.36 -16.44,-36.75 -24.54,-55.19 78.08,2.86 156.49,4.41 235.28,4.41 163.12,0 324.77,-6.29 484.75,-18.54 54.51,24.1 109.52,47.2 165.06,69.32l-860.54 0zm989.12 665.51c-185.51,47.59 -376.36,81.91 -571.46,101.86 -21.76,-33.71 -43.18,-67.67 -64.26,-101.86l635.72 0zm-800.02 118.53c-57.6,2.53 -115.51,3.84 -173.73,3.84 -336.26,0 -662.58,-42.51 -973.9,-122.37l1075.99 0c23.43,39.8 47.31,79.31 71.64,118.53zm-1568.89 -252.62c-103.74,-39.63 -205.34,-83.58 -304.6,-131.62l1654.16 0c23.16,44.19 46.81,88.08 70.99,131.62l-1420.55 0zm-557.64 -265.71c-72.1,-41.67 -142.75,-85.58 -211.85,-131.62l1988.13 0c20.43,44.17 41.37,88.04 62.83,131.62l-1839.11 0zm-400.78 -265.71c-56.16,-42.42 -111.13,-86.31 -164.88,-131.63l1705.55 0c180.05,29.14 362.68,50.64 547.53,64.08 9.47,22.59 19.06,45.1 28.79,67.55l-2116.99 0zm-315.89 -265.71c-45.78,-42.8 -90.5,-86.69 -134.18,-131.63l939.55 0c140.19,48.77 282.63,92.72 427.16,131.63l-1232.53 0zm-258.62 -265.71c-38.12,-43.04 -75.3,-86.93 -111.51,-131.63l530.79 0c96.61,46.29 194.62,90.22 293.89,131.63l-713.17 0zm-215.41 -265.71c-32.02,-43.21 -63.15,-87.09 -93.4,-131.63l232.16 0c76.39,45.48 153.85,89.37 232.3,131.63l-371.06 0zm-180.53 -265.71c-24.08,-38.79 -47.5,-78.03 -70.25,-117.68 57.39,40.18 115.49,79.41 174.27,117.68l-104.02 0zm-558.53 -1594.26c-5.2,-43.67 -9.69,-87.56 -13.46,-131.65l2002.35 0c16.67,44.2 33.98,88.08 51.91,131.65l-2040.8 0zm-22.59 -265.71c-2.22,-43.22 -3.71,-86.65 -4.49,-130.26l1924.89 0c13.64,43.69 27.91,87.12 42.74,130.26l-1963.14 0zm23.8 -265.73c45.04,-44.05 90.68,-87.48 136.95,-130.26l1685.01 0c10.92,43.65 22.43,87.07 34.54,130.26l-1856.5 0zm286.24 -264.32c51.23,-44.66 103.16,-88.55 155.73,-131.65l1321.47 0c8.41,44.09 17.43,87.98 27.03,131.65l-1504.23 0zm324.7 -265.71c58.38,-44.82 117.5,-88.71 177.37,-131.65l932.05 0c5.89,44.07 12.37,87.96 19.45,131.65l-1128.87 0zm371.4 -265.71c67.75,-45.08 136.36,-88.97 205.82,-131.65l504.12 0c3.45,44.05 7.46,87.94 12.07,131.65l-722.01 0zm434.03 -265.72c20.4,-11.44 40.85,-22.79 61.38,-34.03 8.99,11.85 18.6,23.21 28.76,34.03l-90.14 0zm680.76 1726.96c19.79,44.23 40.23,88.12 61.28,131.64l-1934.74 0c-17.07,-14.83 -34.08,-29.76 -50.99,-44.77 -30.87,-28.64 -61.44,-57.6 -91.72,-86.87l2016.17 0zm128.79 265.71c23.17,44.27 46.97,88.18 71.45,131.64l-1745.3 0c-56.99,-42.9 -113.17,-86.79 -168.57,-131.64l1842.42 0zm149.82 265.71c26.9,44.37 54.45,88.24 82.72,131.64l-1523.38 0c-66.84,-42.6 -132.74,-86.48 -197.7,-131.64l1638.36 0zm173.22 265.73c31.07,44.43 62.89,88.32 95.42,131.62l-1248.05 0c-81.31,-42.07 -161.47,-85.96 -240.46,-131.62l1393.09 0zm199.84 265.71c35.93,44.53 72.58,88.42 110.04,131.63l-871.42 0c-106.48,-40.95 -211.36,-84.86 -314.6,-131.63l1075.98 0zm170.94 265.71c-16.12,41.13 -26.02,85.4 -28.52,131.63l-3.72 0c-173.66,-36.5 -344.12,-80.51 -511.15,-131.63l543.39 0zm-2934.67 -2258.38c3.69,-44.09 8.1,-87.98 13.26,-131.65l134.61 0c-49.15,43.21 -97.7,87.09 -145.6,131.65l-2.27 0zm31.43 -265.71c6.75,-44.13 14.29,-88.02 22.53,-131.65l415.01 0c-55.33,43.06 -110,86.95 -163.97,131.65l-273.57 0zm50.26 -265.71c9.93,-44.18 20.72,-88.04 32.14,-131.65l720.34 0c-63.15,42.86 -125.54,86.77 -187.16,131.65l-565.32 0zm69.78 -265.72c13.3,-44.23 27.43,-88.12 42.24,-131.64l1063.88 0c-73.63,42.56 -146.42,86.47 -218.29,131.64l-887.83 0zm90.6 -265.73c16.89,-44.27 34.54,-88.14 53,-131.62l1124.92 0c-8.83,34.09 -13.52,69.86 -13.52,106.74 0,8.36 0.24,16.64 0.72,24.88l-1165.12 0zm112.89 -265.71c20.81,-44.33 42.46,-88.22 64.86,-131.62l1206.98 0c-58.16,32.02 -107.99,77.23 -145.49,131.62l-1126.35 0zm137.39 -265.71c25.17,-44.41 51.2,-88.32 78.04,-131.62l1170.12 0c-6.19,43.68 -11.77,87.57 -16.77,131.62l-1231.39 0zm164.95 -265.71c30.17,-44.53 61.24,-88.42 93.18,-131.63l1035.13 0c-8.67,43.67 -16.75,87.56 -24.24,131.63l-1104.07 0zm196.88 -265.71c36.13,-44.7 73.25,-88.56 111.27,-131.63l880.85 0c-11.28,43.65 -21.96,87.52 -32.04,131.63l-960.08 0zm235.36 -265.71c43.57,-44.94 88.18,-88.83 133.87,-131.63l699.78 0c-13.99,43.61 -27.39,87.48 -40.16,131.63l-793.48 0zm284.49 -265.71c53.61,-45.32 108.42,-89.21 164.44,-131.63l478.64 0c-16.86,43.57 -33.11,87.46 -48.72,131.63l-594.36 0zm352.77 -265.71c68.87,-46.05 139.3,-89.96 211.18,-131.63l191.17 0c-19.93,43.53 -39.21,87.41 -57.85,131.63l-344.5 0zm463.25 -265.71l3.91 -1.9 -0.95 1.9 -2.96 0z"/>
  <path class="fil1 str0" d="M12580.93 10772.08c-979.69,634.3 -2088.03,1002.79 -3401.49,1002.79 -1313.47,0 -2689.95,-584.1 -3722.48,-1332.84 -59.56,-135.54 -111.91,-274.99 -156.18,-418.04 1041.81,857.91 2423.76,1515.45 3878.65,1515.45 1743.42,0 3986.68,-778.89 4490.4,-2636.71l2.15 -1.13c-218.67,-57.34 -380,-256.31 -380,-492.96 0,-281.45 228.16,-509.6 509.61,-509.6 281.44,0 509.6,228.15 509.6,509.6 0,230.53 -153.1,425.28 -363.16,488.2 2.86,1.69 5.69,3.43 8.51,5.23 -213.77,826.91 -710.38,1418.6 -1375.62,1870.01z"/>
  <circle class="fil0" cx="9892.45" cy="5777.37" r="199.93"/>
  <circle class="fil0" cx="11261.53" cy="6988.31" r="199.93"/>
  <circle class="fil0" cx="9178.53" cy="7015.42" r="199.93"/>
  <circle class="fil0" cx="7015.35" cy="7600.6" r="199.93"/>
  <circle class="fil0" cx="8521.09" cy="11088.02" r="199.93"/>
 </g>
</svg>
